<svg width="76" height="68" viewBox="0 0 76 68" fill="none" xmlns="http://www.w3.org/2000/svg">
<path fill-rule="evenodd" clip-rule="evenodd" d="M6.68295 64.6349C6.68295 65.1707 6.52408 65.6944 6.22641 66.1399C5.92874 66.5854 5.50565 66.9327 5.01065 67.1377C4.51564 67.3427 3.97096 67.3963 3.44546 67.2918C2.91997 67.1873 2.4373 66.9293 2.05844 66.5504C1.67958 66.1716 1.42157 65.6889 1.31704 65.1634C1.21252 64.6379 1.26612 64.0932 1.47116 63.5982C1.6762 63.1032 2.02341 62.6801 2.4689 62.3825C2.91439 62.0848 3.43818 61.9259 3.97397 61.9259C4.33113 61.9208 4.68571 61.9873 5.01669 62.1217C5.34767 62.256 5.64833 62.4554 5.90091 62.708C6.15349 62.9605 6.35288 63.2612 6.48721 63.5922C6.62154 63.9232 6.68807 64.2777 6.68295 64.6349ZM7.16299 64.6349C7.16596 64.0035 6.98144 63.3855 6.63284 62.8591C6.28424 62.3327 5.78725 61.9217 5.2048 61.678C4.62235 61.4343 3.98064 61.369 3.36105 61.4904C2.74146 61.6117 2.17182 61.9142 1.72433 62.3596C1.27684 62.805 0.971648 63.3732 0.847379 63.9922C0.72311 64.6112 0.785413 65.2532 1.02633 65.8368C1.26725 66.4204 1.67596 66.9193 2.20071 67.2704C2.72546 67.6215 3.3426 67.8089 3.97397 67.8089C4.39201 67.8108 4.80632 67.73 5.19308 67.5714C5.57984 67.4127 5.93145 67.1792 6.22775 66.8843C6.52405 66.5894 6.75915 66.2389 6.91964 65.8529C7.08014 65.4668 7.16286 65.0529 7.16299 64.6349ZM4.71896 63.9869C4.71896 63.6119 4.45895 63.5799 4.27395 63.5799H3.38394V64.4139H4.20797C4.48097 64.4139 4.71896 64.3399 4.71896 63.9869ZM5.35794 66.0869H4.76797C4.71031 65.831 4.68343 65.5692 4.68796 65.3069C4.68796 65.0879 4.64899 64.8639 4.24399 64.8639H3.38394V66.0839H2.86599V63.1079H4.24399C4.72399 63.1079 5.24399 63.2829 5.24399 63.9429C5.2528 64.0733 5.22777 64.2038 5.17135 64.3217C5.11494 64.4396 5.02904 64.541 4.92196 64.6159C5.05896 64.6909 5.17296 64.8159 5.18795 65.1539L5.20999 65.6679C5.21499 65.8139 5.22498 65.8459 5.35098 65.9109V66.0869H5.35794Z" fill="#66A7DB"/>
<path fill-rule="evenodd" clip-rule="evenodd" d="M75.688 40.0999H72.253C71.9923 40.0704 71.7286 40.1196 71.4959 40.2409C71.4029 40.3031 71.3281 40.389 71.2793 40.4897C71.2304 40.5904 71.2092 40.7023 71.218 40.8139C71.2141 40.9428 71.2524 41.0694 71.3271 41.1745C71.4019 41.2796 71.5089 41.3573 71.6319 41.3959C71.8691 41.4656 72.116 41.4967 72.363 41.4879L73.3759 41.5099C74.143 41.443 74.9071 41.6683 75.515 42.1409C75.5773 42.204 75.6356 42.2708 75.6899 42.3409V40.0999H75.688ZM75.688 45.2929C75.3766 45.6567 74.9811 45.9388 74.5357 46.1146C74.0904 46.2905 73.6089 46.3548 73.133 46.3019H69.5V44.6109H73.125C73.3935 44.6425 73.664 44.571 73.8819 44.4109C73.9549 44.3472 74.0133 44.2685 74.0528 44.1801C74.0924 44.0916 74.1122 43.9957 74.1109 43.8989C74.1141 43.8009 74.0952 43.7034 74.0555 43.6138C74.0159 43.5241 73.9565 43.4445 73.8819 43.3809C73.6911 43.2387 73.4536 43.1741 73.217 43.1999C71.451 43.1389 69.244 43.2539 69.244 40.7639C69.244 39.6189 69.9679 38.4209 71.9439 38.4209H75.6949V36.8569H72.1999C71.3647 36.8157 70.538 37.0408 69.839 37.4999V36.8569H64.6899C63.8906 36.8156 63.1003 37.0418 62.4439 37.4999L62.4489 36.8569H53.243V37.4999C52.4695 37.06 51.5915 36.8378 50.702 36.8569H44.642V37.4999C43.8504 37.0027 42.9183 36.7769 41.987 36.8569H35.2L33.646 38.5399L32.192 36.8569H22.046V47.8459H32L33.5999 46.1379L35.11 47.8459H41.242V45.2569H41.848C42.7386 45.3139 43.6312 45.1845 44.469 44.8769V47.8419H49.529V44.9739H49.7719C50.0889 44.9739 50.116 44.9919 50.116 45.2959V47.8419H65.5C66.4035 47.8777 67.296 47.6333 68.055 47.1419V47.8419H72.9339C73.8814 47.8747 74.8248 47.7018 75.6989 47.3349V45.2999L75.688 45.2929ZM68.1779 42.1439C68.3825 42.3677 68.5385 42.6315 68.6362 42.9185C68.7339 43.2056 68.7713 43.5097 68.7459 43.8119C68.7459 45.5119 67.684 46.3039 65.791 46.3039H62.122V44.6139H65.774C66.0464 44.6461 66.3208 44.5747 66.5429 44.4139C66.6145 44.3495 66.6716 44.2707 66.7104 44.1826C66.7492 44.0945 66.7688 43.9991 66.7679 43.9029C66.7711 43.8043 66.7517 43.7062 66.7112 43.6163C66.6706 43.5263 66.61 43.4468 66.534 43.3839C66.3432 43.2417 66.1055 43.1773 65.869 43.2039C64.108 43.1429 61.905 43.2569 61.905 40.7679C61.905 39.6229 62.619 38.4239 64.592 38.4239H68.363V40.0999H64.911C64.6503 40.0709 64.3869 40.1201 64.154 40.2409C64.0603 40.3025 63.985 40.3882 63.9361 40.4891C63.8871 40.5899 63.8663 40.7022 63.8759 40.8139C63.8731 40.9418 63.9113 41.0673 63.9849 41.172C64.0585 41.2767 64.1637 41.3552 64.285 41.3959C64.5221 41.4657 64.7689 41.4968 65.016 41.4879L66.03 41.5099C66.8001 41.4455 67.5663 41.6716 68.1779 42.1439ZM51.1989 41.6639C50.91 41.7974 50.5908 41.8519 50.274 41.8219H47.984V40.0559H50.305C50.61 40.0302 50.9167 40.0786 51.1989 40.1969C51.3248 40.2649 51.4284 40.3677 51.4972 40.4932C51.5661 40.6186 51.5972 40.7612 51.5869 40.9039C51.593 41.0532 51.5605 41.2016 51.4925 41.3347C51.4246 41.4678 51.3235 41.5812 51.1989 41.6639ZM52.3319 42.6409C52.6983 42.767 53.0194 42.9983 53.255 43.3059C53.5173 43.7371 53.6282 44.2435 53.57 44.7449V46.3039H51.684V45.3179C51.684 44.8429 51.728 44.1459 51.372 43.7809C51.1 43.4909 50.686 43.4249 49.999 43.4249H47.982V46.3039H46.0999V38.4259H50.439C51.2149 38.3546 51.9961 38.4848 52.7069 38.8039C53.0193 38.9713 53.2765 39.2255 53.4475 39.5358C53.6186 39.8462 53.6962 40.1994 53.671 40.5529C53.684 40.9947 53.5636 41.4303 53.3255 41.8027C53.0873 42.1752 52.7425 42.4672 52.336 42.6409M54.719 38.4259H61V40.0559H56.591V41.4828H60.891V43.0909H56.591V44.6599L61 44.6649V46.2999H54.716L54.719 38.4259ZM42.025 42.0559H39.589V40.0559H42.0399C42.7219 40.0559 43.197 40.3339 43.197 41.0209C43.197 41.7079 42.743 42.0559 42.025 42.0559ZM37.711 45.5879L34.827 42.3769L37.711 39.2769V45.5879ZM30.25 44.6619H25.6209V43.0999H29.753V41.4919H25.6209V40.0639H30.3419L32.396 42.3639L30.25 44.6619ZM45.211 41.0209C45.211 43.2079 43.581 43.6589 41.935 43.6589H39.5869V46.3039H35.933L33.611 43.6979L31.202 46.3039H23.75V38.4259H31.321L33.633 41.0059L36.025 38.4259H42.037C43.537 38.4259 45.211 38.8399 45.211 41.0209ZM14.77 29.3529L13.479 26.2179L12.198 29.3529H14.77ZM43.141 28.1109C42.849 28.2438 42.5274 28.2982 42.208 28.2689H39.926V26.5199H42.243C42.5494 26.4958 42.8573 26.5424 43.143 26.6559C43.2689 26.722 43.3727 26.8235 43.4416 26.9479C43.5106 27.0723 43.5416 27.2141 43.531 27.3559C43.5419 27.5057 43.5115 27.6555 43.4431 27.7892C43.3747 27.9228 43.2709 28.0352 43.143 28.1139M59.452 29.3559L58.1519 26.2209L56.861 29.3559H59.452ZM29.052 32.7559H27.123L27.111 26.5979L24.385 32.7559H22.7329L19.993 26.5859V32.7559H16.166L15.447 30.9989H11.528L10.804 32.7559H8.75595L12.125 24.8849H14.925L18.125 32.3419V24.8849H21.2L23.658 30.2269L25.921 24.8849H29.056V32.7559H29.052ZM36.737 32.7559H30.453V24.8849H36.737V26.5269H32.3369V27.9449H36.632V29.5569L32.3369 29.5519V31.1289H36.737V32.7559ZM45.607 27.0119C45.6195 27.453 45.5 27.8878 45.2637 28.2606C45.0274 28.6333 44.6852 28.9269 44.281 29.1039C44.6454 29.2352 44.966 29.4655 45.2069 29.7689C45.4699 30.2002 45.5805 30.7072 45.521 31.2089V32.7579H43.6209L43.609 31.7669C43.6885 31.2382 43.5825 30.6983 43.309 30.2389C43.032 29.9569 42.622 29.9009 41.943 29.9009H39.921V32.7579H38.0399V24.8879H42.374C43.1517 24.8107 43.9358 24.9408 44.6469 25.2649C44.9577 25.4329 45.2132 25.6873 45.3827 25.9973C45.5521 26.3072 45.6283 26.6596 45.602 27.0119M48.615 32.7559H46.695V24.8849H48.615V32.7559ZM70.8869 32.7559H68.222L64.656 26.8509V32.7559H60.8239L60.093 30.9989H56.174L55.474 32.7559H53.274C52.7538 32.8272 52.2242 32.7749 51.7282 32.603C51.2321 32.4311 50.7836 32.1446 50.4192 31.7667C50.0547 31.3888 49.7846 30.9302 49.6308 30.4282C49.477 29.9263 49.4438 29.3951 49.534 28.8779C49.4913 28.3233 49.5596 27.7659 49.735 27.238C49.9103 26.7102 50.189 26.2227 50.555 25.8039C50.9439 25.4647 51.3977 25.2081 51.8888 25.0498C52.38 24.8915 52.8982 24.8347 53.412 24.8829H55.232V26.5659H53.4489C53.1872 26.534 52.9216 26.5593 52.6706 26.6401C52.4195 26.7209 52.189 26.8553 51.995 27.0339C51.6057 27.5433 51.4158 28.1773 51.461 28.8169C51.4035 29.4774 51.5879 30.1363 51.9799 30.6709C52.3478 30.9684 52.8167 31.1117 53.288 31.0709H54.138L56.789 24.8789H59.607L62.791 32.3249V24.8789H65.6629L68.9709 30.3619V24.8789H70.895V32.7519L70.8869 32.7559ZM8.73099 34.2999H11.947L12.67 32.5439H14.295L15.0139 34.2999H21.3419V32.9599L21.9099 34.2999H25.1909L25.7509 32.9429V34.2999H41.478L41.473 31.4279H41.773C41.985 31.4279 42.051 31.4549 42.051 31.8049V34.3049H50.177V33.6309C51.1118 34.0975 52.1464 34.3289 53.1909 34.3049H56.618L57.349 32.5489H58.973L59.6939 34.3049H66.284V32.6369L67.284 34.3049H72.566V23.3219H67.333V24.6219L66.61 23.3219H61.241V24.6219L60.571 23.3219H53.327C52.2417 23.2675 51.1602 23.4869 50.182 23.9599V23.3219H45.188V23.9599C44.5797 23.4936 43.8215 23.2666 43.057 23.3219H24.787L23.554 26.1549L22.307 23.3219H16.551V24.6219L15.912 23.3219H11.006L8.72897 28.5369V34.2999H8.73099ZM8.73099 0.276855H75.6949V67.4698H8.73099V0.276855Z" fill="#66A7DB"/>
</svg>
