<svg width="114" height="35" viewBox="0 0 114 35" fill="none" xmlns="http://www.w3.org/2000/svg">
<path d="M97.5919 0.190918H97.965C98.3508 0.529302 98.6454 0.9591 98.822 1.44092C102.186 7.74625 105.553 14.0483 108.922 20.3469C110.55 23.4179 112.211 26.4701 113.822 29.5471V29.6079C113.722 29.7809 113.651 30.053 113.402 30.03C111.767 30.035 110.127 30.039 108.494 30.03C108.102 30.046 107.994 29.6171 107.846 29.3401C107.546 28.7741 107.227 28.2229 106.959 27.6399C106.499 26.8619 106.138 26.031 105.678 25.252C105.326 24.482 104.869 23.767 104.515 23C104.296 22.535 104.008 22.1061 103.79 21.6411C103.468 20.9491 103.051 20.3091 102.736 19.6121C102.265 18.7931 101.873 17.9321 101.401 17.1121C101.07 16.3781 100.627 15.702 100.294 14.97C100.059 14.47 99.747 14.003 99.515 13.499C99.215 12.844 98.809 12.2411 98.52 11.5801C98.375 11.3241 98.276 10.967 97.973 10.864C97.779 10.848 97.504 10.7991 97.394 11.0071C96.8849 11.8261 96.5119 12.72 96.019 13.551C95.667 14.32 95.2069 15.033 94.8549 15.803C94.6469 16.249 94.37 16.662 94.155 17.103C93.993 17.439 93.831 17.7721 93.641 18.0911C93.305 18.6591 93.066 19.2761 92.726 19.8391C92.426 20.3391 92.219 20.8761 91.926 21.3711C91.617 21.8831 91.398 22.4431 91.093 22.9551C90.744 23.5391 90.493 24.1749 90.146 24.7549C89.846 25.2499 89.641 25.7899 89.346 26.2849C89.036 26.7959 88.818 27.3569 88.513 27.8679C88.185 28.4169 87.9429 29.0131 87.631 29.5681C87.531 29.7341 87.425 29.941 87.216 29.99C86.8935 30.0249 86.5689 30.0343 86.245 30.0181C84.994 30.0181 83.7449 30.018 82.493 30.0229C82.3763 30.0397 82.2573 30.0304 82.1446 29.9958C82.0318 29.9613 81.9282 29.9023 81.841 29.823C81.7852 29.6098 81.8154 29.3831 81.925 29.1919C87.0283 19.6272 92.136 10.0643 97.248 0.50293C97.3323 0.363336 97.452 0.248462 97.5949 0.169922L97.5919 0.190918ZM0.065979 4.78491C0.415979 4.41591 0.945956 4.53593 1.39896 4.52393C5.95496 4.52393 10.5106 4.52393 15.0659 4.52393C16.4118 4.47402 17.7546 4.68694 19.019 5.15088C20.09 5.52295 21.0627 6.13327 21.8636 6.93579C22.6646 7.73831 23.273 8.71216 23.643 9.78394C23.907 10.618 24.0515 11.4855 24.072 12.3601C24.0478 13.2963 23.8729 14.2225 23.554 15.103C23.1668 16.1491 22.4977 17.0677 21.6209 17.7571C21.4029 17.9681 21.065 18.057 20.905 18.322C22.1068 18.7771 23.1551 19.5632 23.929 20.5891C25.1418 22.3266 25.651 24.4589 25.354 26.5569C25.2513 27.9272 24.8353 29.2558 24.138 30.4399C23.6716 31.1777 23.0716 31.8222 22.369 32.3401C20.7779 33.4309 18.9289 34.0859 17.006 34.24C16.6137 34.2557 16.223 34.2995 15.8369 34.3711H0.413971C0.284358 34.2692 0.167522 34.1519 0.065979 34.022V4.78394M5.17896 9.05811C5.07235 9.25191 5.03197 9.47522 5.06396 9.69409C5.07796 11.9091 5.04296 14.1241 5.07996 16.3391C5.14639 16.4258 5.2322 16.4956 5.33047 16.5432C5.42875 16.5908 5.53679 16.6147 5.64597 16.613C8.58997 16.613 11.535 16.613 14.481 16.613C14.8899 16.6084 15.2975 16.5669 15.6989 16.489C16.6341 16.3855 17.5062 15.9669 18.172 15.302C18.5744 14.8422 18.8449 14.282 18.955 13.6809C19.0572 13.2146 19.0765 12.734 19.012 12.261C18.9494 11.4558 18.6228 10.6937 18.083 10.093C17.2983 9.4383 16.3305 9.04189 15.312 8.95801C14.993 8.92701 14.6669 8.97389 14.3499 8.91089C13.9526 8.85397 13.5506 8.83772 13.15 8.86206C10.733 8.86206 8.31498 8.86206 5.89798 8.86206C5.64395 8.85971 5.3944 8.92898 5.17798 9.06201M5.34198 21.062C5.29145 21.0729 5.2445 21.0964 5.20551 21.1304C5.16651 21.1643 5.13672 21.2076 5.11896 21.2561C4.98271 21.6103 4.93532 21.9922 4.98096 22.3689C4.98096 24.6469 4.98096 26.9271 4.98096 29.2051C4.98596 29.5311 5.16897 29.9941 5.56097 29.9541C8.67164 29.9541 11.7833 29.9541 14.896 29.9541C15.2084 29.969 15.5216 29.9498 15.83 29.897C16.9439 29.8586 18.0291 29.5339 18.981 28.9541C19.695 28.3965 20.1635 27.5825 20.287 26.6851C20.485 25.6706 20.4297 24.623 20.1259 23.635C19.8754 22.857 19.3351 22.2052 18.617 21.8149C17.6373 21.3389 16.5686 21.0734 15.4799 21.0359H5.64297C5.54232 21.0334 5.44168 21.0422 5.34296 21.062H5.34198ZM30.43 4.552C30.7793 4.51896 31.1305 4.51102 31.481 4.52808C36.3143 4.52808 41.1477 4.52808 45.981 4.52808C48.2049 4.58584 50.3317 5.45124 51.964 6.96289C53.1567 8.17302 53.8981 9.756 54.064 11.447C54.064 12.108 54.092 12.7699 54.045 13.4319C53.8842 14.8801 53.2395 16.2319 52.215 17.2681C51.9204 17.5919 51.5785 17.8694 51.201 18.0911C51.122 18.1571 50.9549 18.1909 51.0009 18.3259C52.2452 18.8211 53.3212 19.6632 54.101 20.752C54.4143 21.2104 54.6794 21.6999 54.892 22.2129C55.2828 23.2487 55.486 24.3458 55.492 25.4529C55.4626 26.305 55.3589 27.153 55.182 27.9871C54.8753 29.4401 54.1444 30.7693 53.0819 31.8069C52.661 32.1721 52.2116 32.5034 51.7379 32.7971C50.352 33.5805 48.8174 34.0647 47.2329 34.219C46.7969 34.294 46.3459 34.2539 45.9149 34.3689H30.506C30.3758 34.3126 30.2647 34.2198 30.1864 34.1016C30.1081 33.9833 30.0659 33.8447 30.065 33.7029C30.065 24.1975 30.065 14.6933 30.065 5.18994C30.0649 5.06116 30.0987 4.93462 30.1629 4.823C30.2272 4.71138 30.3196 4.61861 30.431 4.55396M35.5949 8.896C35.5116 8.9064 35.4313 8.93396 35.359 8.97681C35.2868 9.01965 35.2241 9.07687 35.175 9.14502C35.0655 9.3692 35.0262 9.62104 35.062 9.86792C35.069 11.8969 35.062 13.9271 35.062 15.9541C35.0658 16.0828 35.101 16.2085 35.1644 16.3206C35.2278 16.4326 35.3176 16.5274 35.426 16.5969C36.026 16.6479 36.626 16.6039 37.226 16.6179C39.784 16.6179 42.339 16.6179 44.896 16.6179C45.768 16.5815 46.6214 16.3541 47.396 15.9519C47.7659 15.7589 48.0923 15.4922 48.3551 15.1682C48.6179 14.8442 48.8115 14.4699 48.924 14.0681C49.0657 13.4284 49.1105 12.7709 49.057 12.1179C48.997 11.6538 48.8566 11.2039 48.642 10.7881C48.3193 10.296 47.8908 9.88184 47.388 9.57617C46.8851 9.2705 46.3204 9.08089 45.735 9.021C45.285 8.909 44.815 8.99994 44.36 8.90894C44.0126 8.86383 43.6617 8.85127 43.312 8.87109C40.839 8.87109 38.366 8.87109 35.893 8.87109C35.7922 8.87063 35.6917 8.88047 35.593 8.90088M35.426 21.071C35.3106 21.1067 35.2112 21.1815 35.1453 21.2827C35.0794 21.3839 35.051 21.505 35.065 21.625C35.065 24.016 35.065 26.4059 35.065 28.7949C35.036 29.1012 35.0663 29.4103 35.154 29.7051C35.213 29.9051 35.464 29.9559 35.654 29.9609C38.821 29.9609 41.988 29.9609 45.154 29.9609C45.571 29.9829 45.9819 29.8751 46.3969 29.8611C47.4866 29.7788 48.5267 29.3727 49.3839 28.6951C50.0097 28.0175 50.3768 27.1412 50.421 26.22C50.512 25.7728 50.515 25.3123 50.43 24.864C50.4192 24.3443 50.2998 23.8327 50.0796 23.3618C49.8593 22.891 49.543 22.4712 49.151 22.1299C48.0834 21.4373 46.8414 21.0615 45.5689 21.0459H36.0689C35.8566 21.0326 35.6435 21.0414 35.433 21.072L35.426 21.071ZM55.674 5.1709C55.645 5.09736 55.6352 5.01782 55.6456 4.93945C55.656 4.86108 55.6862 4.7866 55.7333 4.72314C55.7804 4.65969 55.843 4.60922 55.915 4.57666C55.987 4.5441 56.0662 4.53058 56.145 4.53711C57.701 4.53711 59.2579 4.54411 60.8159 4.53711C60.9058 4.5198 60.9987 4.5287 61.0836 4.56274C61.1686 4.59679 61.2419 4.65443 61.295 4.729C61.6526 5.304 61.9745 5.90035 62.2589 6.51489C62.4469 6.90389 62.686 7.26308 62.874 7.65308C63.219 8.40108 63.6669 9.09803 64.0089 9.85303C64.4669 10.632 64.831 11.462 65.288 12.241C65.682 13.083 66.175 13.8721 66.564 14.7161C66.902 15.3081 67.21 15.9161 67.515 16.5161C67.902 17.1451 68.174 17.837 68.559 18.468C68.826 18.933 69.026 19.435 69.3 19.895C69.652 20.477 69.9 21.1171 70.248 21.6951C70.596 22.2731 70.832 22.922 71.205 23.49C71.2536 23.5628 71.3194 23.6225 71.3966 23.6638C71.4738 23.7051 71.56 23.7266 71.6475 23.7266C71.735 23.7266 71.8212 23.7051 71.8984 23.6638C71.9756 23.6225 72.0414 23.5628 72.09 23.49C72.463 22.922 72.7 22.2791 73.047 21.6951C73.357 21.1861 73.575 20.6251 73.88 20.1111C74.229 19.5271 74.48 18.891 74.828 18.311C75.175 17.711 75.4449 17.0579 75.8109 16.4619C76.2379 15.5689 76.752 14.719 77.174 13.823C77.519 13.236 77.81 12.6229 78.124 12.0229C78.492 11.4299 78.748 10.775 79.107 10.177C79.419 9.642 79.647 9.06498 79.963 8.53198C80.279 7.99898 80.508 7.42497 80.827 6.89697C81.1917 6.13991 81.5966 5.40286 82.0399 4.68896C82.1549 4.51096 82.38 4.55102 82.563 4.54102C84.093 4.55502 85.6219 4.5409 87.1519 4.5459C87.2516 4.54115 87.3504 4.56595 87.436 4.61719C87.5216 4.66843 87.5901 4.74391 87.633 4.83398C87.733 5.12298 87.521 5.38312 87.3889 5.62012C82.5283 14.7068 77.671 23.7974 72.817 32.8921C72.5815 33.4375 72.2634 33.9435 71.874 34.3921H71.508C70.954 34.0471 70.769 33.3709 70.4539 32.8359C65.5206 23.6126 60.594 14.3924 55.674 5.17505V5.1709Z" fill="#0A467F"/>
</svg>
