<svg width="128" height="33" viewBox="0 0 128 33" fill="none" xmlns="http://www.w3.org/2000/svg">
<path d="M44.3179 15.459C47.4269 16.496 49.191 18.288 49.418 21.397C49.5601 22.9605 49.26 24.5326 48.5519 25.9339C47.8438 27.3351 46.7561 28.5091 45.413 29.322C43.8174 30.4141 42.0005 31.1406 40.0919 31.45C36.5034 32.1158 32.8265 32.1541 29.2249 31.563C25.5829 30.974 23.9879 28.7631 24.7719 25.1201C26.3949 17.6151 28.1309 10.1089 29.8419 2.62991C29.9829 2.04091 30.1489 1.59314 30.9069 1.53714C34.9959 1.17314 39.0579 0.556107 43.1749 1.25711C44.6687 1.46807 46.1222 1.90209 47.4869 2.54495C52.1379 4.84495 52.6139 10.3861 48.4959 13.4971C47.2237 14.3805 45.8121 15.0436 44.32 15.459H44.3179ZM33.6179 18.314C33.0859 20.752 32.581 22.9921 32.077 25.2051C31.877 26.0451 31.9929 26.718 33.0009 26.772C35.3418 27.0436 37.7107 26.6149 39.8079 25.5401C40.5525 25.1422 41.1516 24.518 41.5187 23.7578C41.8859 22.9976 42.0023 22.1406 41.851 21.3101C41.628 19.5461 40.366 18.8471 38.827 18.3701C37.288 17.8931 35.0919 18.15 33.6559 18.117L33.6179 18.3169M38.6279 6.07913C37.5339 6.07913 36.579 5.91497 36.249 6.91897C35.772 8.59897 35.437 10.3351 35.049 12.0711C34.908 12.6601 35.105 13.191 35.749 13.219C38.269 13.36 40.791 13.388 42.835 11.595C43.2876 11.2563 43.6331 10.7945 43.8303 10.2647C44.0274 9.73488 44.0678 9.15963 43.9468 8.60745C43.8257 8.05527 43.5483 7.54961 43.1475 7.15091C42.7468 6.7522 42.2397 6.47716 41.687 6.35891C40.7401 6.14766 39.7708 6.05384 38.801 6.07913H38.6279ZM105.121 6.49905C103.692 2.57905 100.079 1.65404 96.3829 1.29104C92.9587 1.0012 89.5134 1.07585 86.1049 1.51394C85.5988 1.50842 85.1089 1.692 84.7308 2.02859C84.3528 2.36518 84.1139 2.83064 84.0609 3.33401C82.0459 12.52 79.944 21.7071 77.9 30.8931C77.816 31.2281 77.6489 31.593 78.0999 32.012H80.7889C84.2049 32.012 85.2139 31.2001 85.9689 27.8941C86.4169 25.9331 86.869 23.9451 87.286 22.0401C87.8825 21.8918 88.5051 21.8822 89.106 22.012C94.035 22.181 98.714 21.3671 102.325 17.6721C105.403 14.5371 106.691 10.7271 105.125 6.49905H105.121ZM98.9589 11.399C98.2879 14.593 95.5429 16.5799 91.7589 16.6079C89.2959 16.6079 89.071 16.329 89.603 13.835C90.051 11.791 90.5279 9.77413 90.8909 7.73513C90.8961 7.53074 90.9445 7.32969 91.0328 7.14529C91.1211 6.96089 91.2474 6.79725 91.4034 6.66507C91.5594 6.53288 91.7415 6.43507 91.9379 6.3782C92.1343 6.32133 92.3405 6.3066 92.543 6.33499C93.5804 6.26027 94.6227 6.29819 95.6519 6.44802C98.3399 6.94802 99.516 8.71706 98.952 11.4051L98.9589 11.399ZM77.478 1.82009C71.007 -0.532905 64.7899 -0.11294 59.4409 4.50906C54.3139 8.93406 52.6909 14.8161 53.3359 21.4251C53.6989 25.2071 55.2969 28.369 58.6849 30.303C62.9969 32.766 67.6189 32.8511 72.2689 31.4781C72.7774 31.3438 73.2405 31.0755 73.6099 30.7012C73.9793 30.3269 74.2414 29.8603 74.369 29.3501C74.789 27.6981 75.1529 26.0439 75.5689 24.1699C74.3068 24.9376 72.9753 25.5849 71.5919 26.1031C67.3619 27.4191 63.1339 25.7961 61.6489 22.2671C59.6049 17.3941 62.5169 9.72003 67.3619 7.47903C71.3389 5.65803 75.1769 6.46993 79.0129 8.59793C79.2359 7.75793 79.461 7.00314 79.658 6.24514C80.217 3.92214 79.7399 2.66009 77.4739 1.82009H77.478Z" fill="#12448D"/>
<path d="M12.5 4.11523C16.241 5.98426 19.3908 8.85349 21.5999 12.4043C22.2601 13.4272 22.5828 14.6315 22.5226 15.8474C22.4623 17.0634 22.0221 18.2295 21.2639 19.1821C18.1275 23.5066 13.9054 26.9268 9.02396 29.0972C5.74696 30.6102 2.13295 28.8463 0.734955 25.2893C2.7205 24.2923 4.63001 23.1506 6.44797 21.8733C9.13697 19.9123 11.462 17.6433 12.609 14.4243C13.4256 12.8251 13.8419 11.0514 13.8224 9.25586C13.8029 7.4603 13.3481 5.69637 12.497 4.11523H12.5ZM117.526 4.11523C121.271 5.99005 124.43 8.85736 126.657 12.4043C127.32 13.3942 127.656 14.5676 127.616 15.7585C127.576 16.9495 127.163 18.0979 126.435 19.0413C123.267 23.4722 118.961 26.9651 113.972 29.1511C110.722 30.6081 107.194 28.8153 105.821 25.3433C107.705 24.3761 109.52 23.2811 111.255 22.0662C114.028 20.0502 116.492 17.7532 117.669 14.4192C118.494 12.8229 118.912 11.0478 118.887 9.25122C118.862 7.45461 118.395 5.69189 117.526 4.11914V4.11523Z" fill="#EC6956"/>
<path d="M12.5 4.11519C13.3471 5.69308 13.7974 7.45349 13.812 9.24434C13.8267 11.0352 13.4052 12.8027 12.584 14.3942C10.1765 11.9215 7.28868 9.96749 4.09799 8.6523C5.74999 4.1993 9.50296 2.23819 12.498 4.11519H12.5ZM117.526 4.11519C118.398 5.68911 118.865 7.45512 118.885 9.25435C118.904 11.0536 118.476 12.8297 117.639 14.4223C115.206 11.9135 112.277 9.9383 109.039 8.62227C109.484 7.44876 110.171 6.38139 111.053 5.48921C111.936 4.59704 112.996 3.89969 114.165 3.4421C114.73 3.22051 115.348 3.16617 115.943 3.28511C116.539 3.40406 117.088 3.69144 117.525 4.11324L117.526 4.11519Z" fill="#12448D"/>
</svg>
