<svg width="90" height="146" viewBox="0 0 90 146" fill="none" xmlns="http://www.w3.org/2000/svg">
<path d="M24.344 16.6001H82.8C84.6579 16.6017 86.4391 17.3403 87.7526 18.6543C89.066 19.9683 89.8042 21.75 89.805 23.6079V138.181C89.8039 140.039 89.0657 141.821 87.7524 143.135C86.439 144.449 84.6579 145.188 82.8 145.19H24.34C22.482 145.188 20.7006 144.449 19.387 143.135C18.0735 141.821 17.335 140.039 17.334 138.181V23.6001C17.3369 21.7427 18.0767 19.9623 19.391 18.6499C20.7053 17.3375 22.4866 16.6004 24.344 16.6001Z" fill="url(#paint0_linear_3_1792)"/>
<path d="M7.50596 0.575195H65.589C67.4321 0.577581 69.1989 1.31188 70.5007 2.6167C71.8025 3.92152 72.5328 5.69003 72.531 7.5332V121.249C72.5297 123.09 71.7978 124.855 70.4963 126.156C69.1947 127.458 67.4297 128.19 65.589 128.191H7.50596C5.66523 128.19 3.90032 127.458 2.59873 126.156C1.29714 124.855 0.565327 123.09 0.564003 121.249V7.5332C0.560978 6.6203 0.737798 5.71565 1.08439 4.87109C1.43098 4.02654 1.94053 3.25845 2.58396 2.61084C3.22739 1.96323 3.99209 1.44873 4.83439 1.09668C5.67668 0.744629 6.58005 0.561966 7.49296 0.559082L7.50596 0.575195Z" fill="#043263"/>
<path d="M72.563 16.5962H0.564026V112.186H72.563V16.5962Z" fill="#49A5E6"/>
<path opacity="0.5" d="M0.65802 16.6592V112.123L37.349 112.186L72.532 47.1611V16.6001L0.65802 16.6592Z" fill="url(#paint1_linear_3_1792)"/>
<path d="M57.013 64.3911C57.013 68.4357 55.8136 72.3895 53.5665 75.7524C51.3195 79.1154 48.1256 81.7364 44.3889 83.2842C40.6521 84.832 36.5403 85.2373 32.5734 84.4482C28.6065 83.6592 24.9626 81.7115 22.1027 78.8516C19.2427 75.9916 17.295 72.3473 16.5059 68.3804C15.7168 64.4135 16.1219 60.3017 17.6697 56.5649C19.2175 52.8282 21.8386 49.6343 25.2016 47.3872C28.5646 45.1401 32.5184 43.9409 36.563 43.9409C41.9867 43.9409 47.1882 46.0955 51.0233 49.9307C54.8584 53.7658 57.013 58.9674 57.013 64.3911Z" fill="#28AD68"/>
<path d="M32.354 73.5641C31.8712 73.5623 31.4084 73.3703 31.066 73.0299L24.752 66.7472C24.4021 66.4139 24.1988 65.9554 24.187 65.4723C24.1752 64.9892 24.3558 64.521 24.689 64.171C25.0223 63.8211 25.4808 63.6179 25.9639 63.6061C26.447 63.5943 26.9151 63.7748 27.265 64.108L27.328 64.171L32.354 69.171L45.799 55.757C46.1432 55.4284 46.6024 55.2475 47.0782 55.2531C47.5541 55.2586 48.0089 55.4502 48.3454 55.7867C48.6819 56.1232 48.8734 56.578 48.8789 57.0538C48.8844 57.5297 48.7036 57.9889 48.375 58.3331L33.642 73.0333C33.2991 73.3726 32.8364 73.5631 32.354 73.5641Z" fill="white"/>
<defs>
<linearGradient id="paint0_linear_3_1792" x1="20.0879" y1="-2738.05" x2="124.864" y2="-2675.49" gradientUnits="userSpaceOnUse">
<stop stop-color="#192647" stop-opacity="0.502"/>
<stop offset="1" stop-color="#192647" stop-opacity="0"/>
</linearGradient>
<linearGradient id="paint1_linear_3_1792" x1="10.1453" y1="-2717.92" x2="67.6138" y2="-2685.42" gradientUnits="userSpaceOnUse">
<stop stop-color="white" stop-opacity="0.502"/>
<stop offset="1" stop-color="#ECF7F8" stop-opacity="0.102"/>
</linearGradient>
</defs>
</svg>
