<svg width="95" height="67" viewBox="0 0 95 67" fill="none" xmlns="http://www.w3.org/2000/svg">
<path fill-rule="evenodd" clip-rule="evenodd" d="M51.854 38.8299C62.195 38.8789 71.634 30.3989 71.634 20.0779C71.634 8.79489 62.195 0.999888 51.854 0.999888H42.9539C40.4332 0.942875 37.9269 1.39738 35.5867 2.33601C33.2465 3.27464 31.1209 4.67791 29.3382 6.46101C27.5555 8.24411 26.1527 10.3701 25.2145 12.7105C24.2764 15.0509 23.8224 17.5571 23.88 20.0779C23.9327 25.0907 25.9695 29.8784 29.5444 33.393C33.1192 36.9075 37.9409 38.8625 42.9539 38.8299H51.854Z" fill="#39659F"/>
<path fill-rule="evenodd" clip-rule="evenodd" d="M42.9919 2.56396C39.5674 2.56377 36.2197 3.579 33.3721 5.48132C30.5244 7.38364 28.3049 10.0876 26.994 13.2513C25.6831 16.4151 25.3396 19.8964 26.0072 23.2553C26.6747 26.6142 28.3232 29.6997 30.7442 32.1217C33.1653 34.5437 36.2501 36.1935 39.6087 36.8624C42.9674 37.5313 46.4489 37.1893 49.6131 35.8796C52.7774 34.57 55.4823 32.3515 57.3857 29.5046C59.2892 26.6578 60.3058 23.3105 60.307 19.8859C60.3075 15.2929 58.4837 10.8878 55.2366 7.63934C51.9894 4.39092 47.585 2.56529 42.9919 2.56396ZM32.021 19.8859C32.0241 17.6668 32.6983 15.5004 33.9551 13.6714C35.2119 11.8425 36.9924 10.4364 39.063 9.63794V30.1219C36.9924 29.327 35.2113 27.9235 33.9542 26.0963C32.6971 24.269 32.0232 22.1038 32.021 19.8859ZM46.921 30.129V9.63794C48.9949 10.4315 50.7791 11.8359 52.0378 13.6652C53.2965 15.4946 53.9704 17.6629 53.9704 19.8834C53.9704 22.104 53.2965 24.2723 52.0378 26.1017C50.7791 27.9311 48.9949 29.3354 46.921 30.129Z" fill="white"/>
<path fill-rule="evenodd" clip-rule="evenodd" d="M2.56992 42.3597C2.56992 40.5597 1.627 40.6807 0.733002 40.6597V40.1357C1.513 40.1727 2.30996 40.1727 3.09396 40.1727C3.93396 40.1727 5.06894 40.1357 6.54794 40.1357C11.7289 40.1357 14.5479 43.5977 14.5479 47.1357C14.5479 49.1187 13.386 54.0958 6.30698 54.0958C5.28698 54.0958 4.35095 54.0588 3.40695 54.0588C2.50695 54.0588 1.62595 54.0758 0.72995 54.0958V53.5787C1.92995 53.4567 2.50599 53.4208 2.56699 52.0588V42.3588L2.56992 42.3597ZM4.52902 51.7377C4.52902 53.2847 5.62898 53.4598 6.60898 53.4598C10.925 53.4598 12.3499 50.2008 12.3499 47.2188C12.3499 43.4797 9.94999 40.7838 6.09299 40.7838C5.57063 40.7837 5.04865 40.8104 4.52902 40.8638V51.7377Z" fill="#262425"/>
<path fill-rule="evenodd" clip-rule="evenodd" d="M15.2519 53.5798H15.629C16.187 53.5798 16.589 53.5798 16.589 52.9168V47.4998C16.589 46.6228 16.2889 46.4998 15.5489 46.0998V45.7828C16.4919 45.4978 17.6099 45.1208 17.6899 45.0598C17.7985 44.9959 17.9219 44.9614 18.0479 44.9598C18.1479 44.9598 18.1889 45.0748 18.1889 45.2408V52.9158C18.1889 53.5788 18.6279 53.5788 19.1889 53.5788H19.5229V54.0948C18.8479 54.0948 18.1419 54.0588 17.4229 54.0588C16.7039 54.0588 15.981 54.0758 15.245 54.0948V53.5788L15.2519 53.5798ZM17.3929 41.8798C17.1335 41.8798 16.8848 41.7768 16.7014 41.5934C16.518 41.41 16.415 41.1612 16.415 40.9018C16.415 40.6424 16.518 40.3937 16.7014 40.2103C16.8848 40.0269 17.1335 39.9238 17.3929 39.9238C17.6491 39.9238 17.8951 40.0244 18.0779 40.2039C18.2606 40.3835 18.3655 40.6276 18.37 40.8838C18.37 41.1451 18.2679 41.396 18.0853 41.5829C17.9027 41.7698 17.6541 41.8778 17.3929 41.8838" fill="#262425"/>
<path fill-rule="evenodd" clip-rule="evenodd" d="M21.432 47.6208C21.432 46.8778 21.212 46.6839 20.27 46.3009V45.9239C21.1654 45.6498 22.0458 45.3294 22.9079 44.9639C22.9709 44.9639 23.032 44.9999 23.032 45.1639V46.4639C23.9892 45.5988 25.2049 45.0734 26.4909 44.9689C28.1909 44.9689 28.791 46.2089 28.791 47.7689V52.9259C28.791 53.5879 29.229 53.5879 29.791 53.5879H30.156V54.1049C29.45 54.1049 28.751 54.0679 28.035 54.0679C27.319 54.0679 26.593 54.0849 25.874 54.1049V53.5879H26.232C26.792 53.5879 27.192 53.5879 27.192 52.9259V47.7489C27.192 46.6069 26.4919 46.0489 25.3499 46.0489C24.5132 46.1817 23.7197 46.5102 23.034 47.0079V52.9279C23.034 53.5899 23.472 53.5899 24.034 53.5899H24.399V54.1069C23.699 54.1069 22.994 54.0699 22.275 54.0699C21.556 54.0699 20.8359 54.0869 20.1169 54.1069V53.5899H20.4749C21.0329 53.5899 21.435 53.5899 21.435 52.9279V47.6279L21.432 47.6208Z" fill="#262425"/>
<path fill-rule="evenodd" clip-rule="evenodd" d="M31.672 48.5808C31.6263 48.9668 31.6263 49.3568 31.672 49.7428C31.789 51.6428 33.012 53.1968 34.61 53.1968C35.127 53.1683 35.633 53.035 36.0971 52.8052C36.5612 52.5754 36.9739 52.2538 37.31 51.8598L37.5899 52.1378C37.2007 52.7849 36.6612 53.3285 36.0171 53.7224C35.3729 54.1164 34.6433 54.3491 33.89 54.4008C30.708 54.4008 30.0649 51.3168 30.0649 50.0398C30.0649 46.1158 32.703 44.9608 34.104 44.9608C34.5351 44.9322 34.9675 44.992 35.3747 45.1365C35.7819 45.2811 36.1554 45.5073 36.472 45.8013C36.7886 46.0954 37.0417 46.451 37.2159 46.8464C37.3901 47.2419 37.4817 47.6688 37.485 48.1008C37.4883 48.2205 37.4816 48.3402 37.4649 48.4588L37.29 48.5808H31.672ZM35.214 47.9428C35.714 47.9428 35.7669 47.6818 35.7669 47.4428C35.7877 47.2047 35.7577 46.9649 35.679 46.7392C35.6003 46.5135 35.4747 46.307 35.3104 46.1334C35.1461 45.9598 34.9469 45.8231 34.7258 45.7321C34.5047 45.6412 34.2668 45.5982 34.0279 45.6058C32.8119 45.6058 31.972 46.5058 31.728 47.9468L35.214 47.9428Z" fill="#262425"/>
<path fill-rule="evenodd" clip-rule="evenodd" d="M37.9499 53.5799H38.4909C39.0509 53.5799 39.4499 53.5799 39.4499 52.9169V47.2999C39.4499 46.6789 38.7099 46.5569 38.4129 46.3939V46.0939C39.8719 45.4749 40.6679 44.9559 40.8509 44.9559C40.9649 44.9559 41.026 45.0169 41.026 45.2169V47.0099H41.0699C41.5699 46.2299 42.415 44.9539 43.63 44.9539C43.7747 44.9469 43.9194 44.969 44.0555 45.0188C44.1916 45.0687 44.3164 45.1452 44.4225 45.244C44.5285 45.3428 44.6137 45.4618 44.6731 45.594C44.7324 45.7263 44.7646 45.869 44.7679 46.0139C44.7748 46.1428 44.7558 46.2718 44.7121 46.3933C44.6684 46.5148 44.601 46.6263 44.5136 46.7213C44.4263 46.8163 44.3207 46.8929 44.2033 46.9466C44.0859 47.0003 43.959 47.03 43.8299 47.0339C43.2109 47.0339 43.211 46.5519 42.51 46.5519C42.1073 46.6062 41.7378 46.8042 41.4697 47.1095C41.2016 47.4147 41.0529 47.8066 41.051 48.2129V52.9069C41.051 53.5699 41.445 53.5699 42.01 53.5699H43.131V54.0859C42.031 54.0669 41.192 54.0499 40.331 54.0499C39.518 54.0499 38.6719 54.0669 37.9539 54.0859V53.5749L37.9499 53.5799Z" fill="#262425"/>
<path fill-rule="evenodd" clip-rule="evenodd" d="M45.65 51.3188C45.697 51.9651 45.9802 52.5716 46.4454 53.0226C46.9107 53.4737 47.5255 53.7379 48.1729 53.7649C48.3757 53.794 48.5823 53.7787 48.7785 53.7203C48.9748 53.6618 49.1561 53.5615 49.3099 53.4263C49.4637 53.291 49.5864 53.124 49.6694 52.9368C49.7524 52.7496 49.7939 52.5466 49.791 52.3419C49.791 49.9839 45.431 50.7419 45.431 47.5239C45.431 46.4009 46.331 44.9639 48.531 44.9639C49.3227 44.9806 50.1001 45.178 50.8039 45.5409L50.9449 47.5799H50.489C50.4798 47.3054 50.4155 47.0355 50.3 46.7863C50.1845 46.537 50.0201 46.3135 49.8166 46.129C49.6131 45.9445 49.3747 45.8028 49.1153 45.7123C48.856 45.6217 48.5811 45.5842 48.307 45.6019C48.1171 45.5812 47.925 45.5994 47.7424 45.6554C47.5598 45.7114 47.3906 45.8039 47.245 45.9274C47.0993 46.0509 46.9802 46.2027 46.8951 46.3737C46.81 46.5447 46.7607 46.7312 46.75 46.9219C46.75 49.2629 51.391 48.5399 51.391 51.6849C51.391 52.9979 50.3339 54.4029 47.9489 54.4029C47.092 54.3788 46.254 54.1454 45.508 53.7229L45.2889 51.4229L45.65 51.3188Z" fill="#262425"/>
<path fill-rule="evenodd" clip-rule="evenodd" d="M69.4489 43.7578H68.9489C68.5659 41.4218 66.905 40.4818 64.666 40.4818C62.366 40.4818 59.0269 42.0208 59.0269 46.8198C59.0269 50.8658 61.909 53.7648 64.988 53.7648C65.9606 53.7632 66.9005 53.4135 67.6377 52.7791C68.3748 52.1446 68.8605 51.2673 69.0069 50.3058L69.463 50.4197L69.0069 53.3387C67.6217 53.9924 66.117 54.3546 64.586 54.4028C59.909 54.4028 56.947 51.3797 56.947 46.8777C56.947 42.7777 60.608 39.8428 64.525 39.8428C66.1463 39.9265 67.7417 40.2849 69.243 40.9028L69.4489 43.7578Z" fill="#262425"/>
<path fill-rule="evenodd" clip-rule="evenodd" d="M70.175 53.5799H70.552C71.113 53.5799 71.5119 53.5799 71.5119 52.9169V41.7819C71.5119 40.4819 71.2119 40.4449 70.4549 40.2189V39.8999C71.1644 39.6726 71.8524 39.3831 72.511 39.0349C72.6493 38.948 72.796 38.8753 72.9489 38.8179C73.0709 38.8179 73.115 38.9399 73.115 39.0959V52.9149C73.115 53.5779 73.553 53.5779 74.115 53.5779H74.448V54.0939C73.774 54.0939 73.067 54.0579 72.348 54.0579C71.629 54.0579 70.908 54.0749 70.17 54.0939L70.175 53.5799Z" fill="#262425"/>
<path fill-rule="evenodd" clip-rule="evenodd" d="M83.0119 52.9999C83.0119 53.3649 83.2309 53.3819 83.5699 53.3819C83.8089 53.3819 84.106 53.3619 84.37 53.3619V53.7839C83.3973 53.9204 82.4358 54.1273 81.493 54.4029L81.3929 54.3419V52.7239C80.1929 53.7039 79.277 54.4029 77.854 54.4029C77.5475 54.4108 77.2428 54.3532 76.9603 54.234C76.6778 54.1148 76.424 53.9368 76.2158 53.7117C76.0076 53.4867 75.8498 53.2198 75.7529 52.9289C75.656 52.638 75.6224 52.3299 75.654 52.0249V46.8999C75.654 46.3759 75.5739 45.8789 74.4539 45.7789V45.3999C75.1779 45.3799 76.771 45.2589 77.032 45.2589C77.258 45.2589 77.258 45.3999 77.258 45.8359V50.9999C77.258 51.5999 77.2579 53.3169 78.9969 53.3169C79.9089 53.174 80.7533 52.7487 81.411 52.1009V46.7179C81.411 46.3179 80.457 46.0969 79.74 45.8939V45.5359C81.533 45.4139 82.659 45.2559 82.853 45.2559C83.017 45.2559 83.0169 45.3969 83.0169 45.6169V52.9999H83.0119Z" fill="#262425"/>
<path fill-rule="evenodd" clip-rule="evenodd" d="M86.99 46.3999C87.7951 45.6026 88.8437 45.0975 89.969 44.9649C92.293 44.9649 93.691 46.9839 93.691 49.1649C93.691 51.7859 91.769 54.4069 88.912 54.4069C87.942 54.4066 86.9873 54.1661 86.133 53.7068L85.5329 54.1619L85.114 53.9459C85.2949 52.7681 85.3877 51.5785 85.3919 50.3869V41.7869C85.3919 40.4869 85.092 40.4499 84.334 40.2229V39.8999C85.0435 39.6733 85.7316 39.3841 86.39 39.0359C86.5302 38.9487 86.679 38.8759 86.834 38.8188C86.956 38.8188 86.9919 38.9409 86.9919 39.0969V46.3969L86.99 46.3999ZM86.99 51.8409C87.0173 52.3764 87.2438 52.8823 87.6252 53.2593C88.0066 53.6362 88.5152 53.8568 89.051 53.8779C91.192 53.8779 92.0909 51.7779 92.0909 49.9969C92.0909 47.8389 90.449 46.0389 88.891 46.0389C88.1661 46.1189 87.493 46.453 86.9909 46.9819V51.8409H86.99Z" fill="#262425"/>
<path fill-rule="evenodd" clip-rule="evenodd" d="M0.708954 65.728H0.859955C1.24995 65.728 1.66 65.679 1.66 65.114V59.4089C1.66 58.8439 1.24595 58.7899 0.859955 58.7899H0.708954V58.4609C1.13295 58.4609 1.78599 58.5029 2.32199 58.5029C2.85799 58.5029 3.51302 58.4609 4.02902 58.4609V58.7899H3.87094C3.48094 58.7899 3.07101 58.8439 3.07101 59.4089V65.114C3.07101 65.681 3.48494 65.728 3.87094 65.728H4.02902V66.0569C3.50802 66.0569 2.85003 66.0129 2.31003 66.0129C1.77003 66.0129 1.13493 66.0569 0.70993 66.0569V65.728H0.708954Z" fill="#262425"/>
<path fill-rule="evenodd" clip-rule="evenodd" d="M4.02902 66.0998C3.50102 66.0998 2.85003 66.0578 2.31003 66.0578C1.77003 66.0578 1.13493 66.0998 0.70993 66.0998H0.66098V65.6778H0.860931C1.25493 65.6688 1.61594 65.6368 1.61594 65.1008V59.4008C1.61594 58.8728 1.25493 58.8358 0.860931 58.8288H0.66098V58.4028H0.70993C1.13593 58.4028 1.78599 58.4508 2.32199 58.4508C2.85799 58.4508 3.513 58.4028 4.03 58.4028H4.07797V58.8288H3.87802C3.47802 58.8358 3.11801 58.8698 3.11801 59.4008V65.1008C3.11801 65.6368 3.48302 65.6688 3.87802 65.6778H4.07797V66.0998H4.02902ZM3.98093 66.0098V65.7728H3.88095C3.49195 65.7728 3.02902 65.7078 3.02402 65.1038V59.4038C3.02402 58.8038 3.49195 58.7358 3.88095 58.7358H3.98093V58.5048C3.47593 58.5048 2.84999 58.5458 2.32199 58.5458C1.79399 58.5458 1.17703 58.5098 0.758026 58.5048V58.7358H0.858002C1.248 58.7358 1.71103 58.8018 1.71103 59.4038V65.1038C1.71103 65.7038 1.248 65.7728 0.858002 65.7728H0.758026V66.0098C1.17703 66.0048 1.79103 65.9608 2.31003 65.9608C2.82903 65.9608 3.46393 66.0048 3.98093 66.0098Z" fill="#262425"/>
<path fill-rule="evenodd" clip-rule="evenodd" d="M11.505 63.9149L11.525 63.8909V59.8109C11.5442 59.6791 11.5337 59.5447 11.4942 59.4174C11.4548 59.2902 11.3875 59.1733 11.2971 59.0754C11.2067 58.9776 11.0955 58.9011 10.9718 58.8517C10.848 58.8023 10.7149 58.7812 10.582 58.7899H10.338V58.4609C10.85 58.4609 11.3539 58.5029 11.8659 58.5029C12.3089 58.5029 12.76 58.4609 13.203 58.4609V58.7899H13.04C12.584 58.7899 12.073 58.875 12.073 60.171V65.1279C12.0666 65.4936 12.087 65.8592 12.134 66.2219H11.7199L6.11996 59.976V64.4589C6.11996 65.4089 6.30291 65.7299 7.14291 65.7299H7.32602V66.059C6.86302 66.059 6.39499 66.015 5.92599 66.015C5.43399 66.015 4.93496 66.059 4.44296 66.059V65.7299H4.59592C5.34892 65.7299 5.57492 65.2299 5.57492 64.3489V59.7689C5.57559 59.6396 5.55059 59.5114 5.50119 59.3918C5.45179 59.2723 5.37899 59.1638 5.2872 59.0727C5.19541 58.9816 5.08641 58.9096 4.96652 58.8611C4.84663 58.8125 4.71829 58.7883 4.58896 58.7899H4.44296V58.4609C4.85696 58.4609 5.28299 58.5029 5.69699 58.5029C6.02599 58.5029 6.34291 58.4609 6.66391 58.4609L11.505 63.9149Z" fill="#262425"/>
<path fill-rule="evenodd" clip-rule="evenodd" d="M12.131 66.2689L11.685 66.2509L6.16293 60.0959V64.4559C6.17293 65.4059 6.31398 65.674 7.13498 65.684H7.36691V66.1049H7.31796C6.84996 66.1049 6.37994 66.064 5.91794 66.064C5.43294 66.064 4.92703 66.1049 4.43503 66.1049H4.38596V65.684H4.59299C5.31199 65.679 5.51102 65.2159 5.52402 64.3469V59.767C5.52389 59.6437 5.49933 59.5217 5.45175 59.408C5.40417 59.2943 5.3345 59.1912 5.2468 59.1046C5.1591 59.018 5.05505 58.9497 4.94077 58.9036C4.82648 58.8575 4.70425 58.8345 4.58102 58.8359H4.38596V58.418H4.43503C4.85603 58.418 5.27993 58.4589 5.68893 58.4589C6.01093 58.4589 6.32693 58.4179 6.68893 58.4269L11.478 63.8109V59.8109C11.471 58.9469 10.893 58.8439 10.578 58.8389H10.286V58.421H10.334C10.851 58.421 11.35 58.4619 11.862 58.4619C12.305 58.4619 12.7479 58.421 13.1989 58.421H13.248V58.8389H13.036C12.585 58.8519 12.13 58.8879 12.11 60.1719V65.1219C12.1035 65.4874 12.1256 65.8529 12.176 66.215L12.188 66.2689H12.1269H12.131ZM11.717 66.1689H12.083C12.0347 65.8205 12.0143 65.4687 12.0219 65.1169V60.1669C12.0219 58.8669 12.57 58.7369 13.037 58.7369H13.1519V58.5059C12.7259 58.5129 12.294 58.5469 11.863 58.5469C11.363 58.5469 10.877 58.5099 10.385 58.5059V58.7369H10.5799C10.7188 58.7298 10.8575 58.7533 10.9863 58.8056C11.1151 58.8579 11.2308 58.9379 11.3253 59.0399C11.4198 59.1418 11.4908 59.2632 11.5333 59.3956C11.5757 59.5279 11.5886 59.6681 11.571 59.806L11.5589 63.918L11.498 63.9789L6.65793 58.5059C6.33593 58.5059 6.01901 58.5469 5.69101 58.5469C5.29101 58.5469 4.88195 58.5099 4.48495 58.5059V58.7369H4.58493C4.72057 58.7355 4.85514 58.7611 4.9808 58.8121C5.10647 58.8632 5.22071 58.9388 5.31686 59.0345C5.41301 59.1302 5.48917 59.244 5.54086 59.3694C5.59255 59.4949 5.61882 59.6293 5.61801 59.765V64.3449C5.61801 65.2219 5.37499 65.7739 4.59799 65.7789L4.48801 65.7719V66.0079C4.96301 66.0029 5.44994 65.96 5.92294 65.96C6.37294 65.96 6.82902 66.0029 7.27902 66.0079V65.7769H7.14096C6.28296 65.7699 6.06894 65.3989 6.06894 64.4489V59.8489L11.717 66.1689ZM11.505 63.913L11.537 63.877L11.505 63.913ZM11.4809 63.8889V63.882L11.469 63.874L11.4809 63.8889Z" fill="#262425"/>
<path fill-rule="evenodd" clip-rule="evenodd" d="M14.833 59.005C14.012 59.005 13.9799 59.199 13.8239 59.991H13.495C13.537 59.691 13.5949 59.385 13.6219 59.065C13.6648 58.7592 13.6868 58.4508 13.688 58.142H13.948C14.034 58.471 14.307 58.459 14.604 58.459H20.219C20.511 58.459 20.7839 58.452 20.8029 58.125L21.0639 58.167C21.0219 58.459 20.9789 58.756 20.9489 59.048C20.9189 59.34 20.925 59.638 20.925 59.93L20.5959 60.052C20.5769 59.645 20.523 59.005 19.796 59.005H18.016V64.795C18.016 65.635 18.393 65.725 18.916 65.725H19.123V66.054C18.697 66.054 17.937 66.01 17.348 66.01C16.697 66.01 15.937 66.054 15.511 66.054V65.725H15.711C16.311 65.725 16.6109 65.677 16.6109 64.812V59H14.833V59.005Z" fill="#262425"/>
<path fill-rule="evenodd" clip-rule="evenodd" d="M19.12 66.0998C18.694 66.0998 17.934 66.0578 17.344 66.0578C16.694 66.0578 15.9339 66.0998 15.5069 66.0998H15.459V65.6778H15.7149C16.3149 65.6608 16.555 65.6538 16.567 64.8088V59.0428H14.8349V58.9498H16.667V64.8088C16.667 65.6828 16.314 65.7688 15.717 65.7758H15.5589V66.0018C15.9819 66.0018 16.721 65.9588 17.347 65.9588C17.919 65.9588 18.647 66.0018 19.076 66.0018V65.7758H18.9179C18.3889 65.7688 17.9699 65.6418 17.9699 64.7888V58.9498H19.8C20.53 58.9498 20.6279 59.5718 20.6519 59.9778L20.884 59.8878C20.884 59.6078 20.8909 59.3208 20.9079 59.0358C20.9399 58.7558 20.9809 58.4748 21.0179 58.1948L20.852 58.1708C20.803 58.4878 20.494 58.5048 20.219 58.4998H14.55C14.294 58.4998 14.017 58.4878 13.917 58.1828H13.7409C13.737 58.4778 13.7153 58.7724 13.676 59.0648C13.644 59.3648 13.5949 59.6538 13.5539 59.9418H13.785C13.931 59.1818 14.024 58.9418 14.838 58.9498V59.0428C14.029 59.0598 14.046 59.1938 13.87 59.9978L13.863 60.0338H13.442L13.4489 59.9808C13.4929 59.6808 13.549 59.3738 13.583 59.0578C13.6256 58.7534 13.646 58.4462 13.644 58.1388V58.0998H13.9919L14 58.1318C14.08 58.4068 14.2799 58.4118 14.5529 58.4118H20.2209C20.5209 58.4118 20.75 58.4048 20.769 58.1198V58.0708L20.818 58.0778L21.1269 58.1268L21.12 58.1758C21.078 58.4678 21.035 58.7608 20.998 59.0528C20.979 59.3428 20.979 59.6368 20.979 59.9348V59.9658L20.9489 59.9788L20.56 60.1168V60.0558C20.528 59.6498 20.487 59.0558 19.797 59.0558H18.058V64.7998C18.07 65.6158 18.399 65.6768 18.915 65.6868H19.171V66.1078H19.12V66.0998Z" fill="#262425"/>
<path fill-rule="evenodd" clip-rule="evenodd" d="M21.415 65.728H21.566C21.96 65.728 22.374 65.679 22.374 65.114V59.4089C22.374 58.8439 21.96 58.7899 21.566 58.7899H21.415V58.4609C22.077 58.4609 23.2149 58.5029 24.1259 58.5029C25.0369 58.5029 26.1699 58.4609 26.9129 58.4609C26.8908 59.0166 26.8972 59.573 26.932 60.1279L26.608 60.213C26.554 59.506 26.42 58.9409 25.276 58.9409H23.7679V61.7939H25.068C25.718 61.7939 25.859 61.4229 25.925 60.8339H26.254C26.23 61.2599 26.2177 61.6862 26.217 62.1129C26.217 62.5249 26.227 62.939 26.254 63.353L25.925 63.416C25.859 62.766 25.825 62.3389 25.073 62.3389H23.7729V64.8749C23.7729 65.5819 24.4009 65.5819 25.0999 65.5819C26.4079 65.5819 26.981 65.4959 27.307 64.2559L27.612 64.3339C27.471 64.9119 27.3389 65.484 27.2459 66.064C26.5459 66.064 25.2929 66.02 24.3139 66.02C23.3349 66.02 22.038 66.064 21.42 66.064L21.415 65.728Z" fill="#262425"/>
<path fill-rule="evenodd" clip-rule="evenodd" d="M27.234 66.0999C26.542 66.0999 25.2879 66.0579 24.3089 66.0579C23.3299 66.0579 22.033 66.0999 21.415 66.0999H21.3709V65.6779H21.571C21.965 65.6779 22.326 65.637 22.331 65.101V59.4009C22.326 58.8729 21.965 58.8359 21.571 58.8289H21.3709V58.4099H21.415C22.077 58.4099 23.2149 58.4509 24.1259 58.4509C25.0369 58.4509 26.1699 58.4099 26.9129 58.4099H26.961L26.9539 58.4589C26.9469 58.6219 26.942 58.81 26.942 59.017C26.942 59.394 26.954 59.8009 26.978 60.1099V60.1539L26.942 60.1639L26.5589 60.2639V60.2109C26.4939 59.5039 26.4009 58.9879 25.2829 58.9829H23.812V61.7379H25.0639C25.6919 61.7309 25.7989 61.409 25.8719 60.825L25.88 60.783H26.291V60.8319C26.274 61.2529 26.2619 61.6769 26.2619 62.1039C26.2619 62.5149 26.274 62.9239 26.291 63.3389V63.3799L26.255 63.387L25.8769 63.468L25.87 63.4119C25.797 62.7489 25.7889 62.384 25.0699 62.379H23.813V64.866C23.82 65.528 24.385 65.524 25.097 65.528C26.405 65.521 26.933 65.455 27.26 64.228L27.2669 64.184L27.316 64.1909L27.662 64.2839L27.655 64.3319C27.511 64.9049 27.382 65.482 27.284 66.059L27.2769 66.0959L27.234 66.0999ZM27.198 65.9999C27.29 65.4519 27.417 64.9 27.551 64.351L27.331 64.3019C27.01 65.5179 26.377 65.6269 25.093 65.6149C24.404 65.6149 23.719 65.6149 23.719 64.8619V62.283H25.0689C25.8289 62.27 25.909 62.7329 25.963 63.3469L26.201 63.2979C26.177 62.9039 26.165 62.498 26.165 62.098C26.165 61.698 26.177 61.2749 26.201 60.8699H25.963C25.902 61.4349 25.726 61.837 25.063 61.83H23.718V58.8799H25.275C26.412 58.8729 26.595 59.4569 26.644 60.1389L26.88 60.0789C26.863 59.7789 26.8509 59.3789 26.8509 59.0139C26.8509 58.8259 26.858 58.6489 26.858 58.4979C26.122 58.5049 25.021 58.5389 24.12 58.5389C23.219 58.5389 22.125 58.5019 21.462 58.4979V58.7289H21.562C21.951 58.7289 22.4139 58.7949 22.4139 59.3959V65.0959C22.4139 65.6959 21.951 65.7659 21.562 65.7709H21.462V65.9969C22.096 65.9969 23.355 65.9539 24.308 65.9539C25.261 65.9539 26.49 65.9999 27.197 65.9999" fill="#262425"/>
<path fill-rule="evenodd" clip-rule="evenodd" d="M29.076 59.614C29.076 58.814 28.6369 58.788 28.3029 58.788H28.103V58.459C28.456 58.459 29.1259 58.5 29.7929 58.5C30.4439 58.5 30.967 58.459 31.545 58.459C32.914 58.459 34.136 58.829 34.136 60.374C34.1217 60.8131 33.9672 61.2361 33.6952 61.5811C33.4231 61.926 33.0477 62.1748 32.624 62.291L34.485 65.077C34.5847 65.2708 34.7353 65.4338 34.9206 65.5485C35.106 65.6632 35.319 65.7253 35.537 65.728V66.057C35.177 66.057 34.831 66.013 34.473 66.013C34.139 66.013 33.786 66.057 33.452 66.057C32.6152 64.936 31.859 63.757 31.1889 62.529H30.4699V64.858C30.4699 65.699 30.86 65.728 31.357 65.728H31.557V66.057C30.931 66.057 30.3019 66.013 29.6839 66.013C29.1599 66.013 28.651 66.057 28.103 66.057V65.728H28.3029C28.7029 65.728 29.076 65.545 29.076 65.143V59.614ZM30.469 62.137H31C32.088 62.137 32.6779 61.726 32.6779 60.437C32.6929 60.2237 32.6616 60.0097 32.5863 59.8096C32.5109 59.6095 32.3933 59.4281 32.2414 59.2776C32.0895 59.1272 31.9069 59.0113 31.7061 58.9378C31.5054 58.8643 31.2911 58.8351 31.078 58.852C30.873 58.8536 30.6683 58.8673 30.4649 58.893V62.135L30.469 62.137Z" fill="#262425"/>
<path fill-rule="evenodd" clip-rule="evenodd" d="M35.536 66.0999C35.17 66.0999 34.8289 66.0579 34.4709 66.0579C34.1369 66.0579 33.7919 66.0999 33.4139 66.0829C32.58 64.9672 31.8255 63.7943 31.156 62.5729H30.51V64.8529C30.523 65.6759 30.8509 65.6689 31.3559 65.6779H31.599V66.0999H31.551C30.932 66.0999 30.299 66.0579 29.685 66.0579C29.161 66.0579 28.652 66.0999 28.104 66.0999H28.062V65.6779H28.306C28.696 65.6779 29.025 65.5029 29.029 65.1379V59.6078C29.017 58.8358 28.64 58.8429 28.306 58.8289H28.062V58.4019H28.104C28.457 58.4019 29.1339 58.4438 29.7939 58.4438C30.4539 58.4438 30.961 58.4019 31.546 58.4019C32.915 58.4099 34.181 58.7849 34.181 60.3659C34.1697 60.8042 34.0202 61.2276 33.7539 61.5758C33.4875 61.924 33.118 62.1792 32.698 62.3049L34.5219 65.0429C34.6195 65.232 34.7668 65.3908 34.948 65.5024C35.1291 65.6139 35.3373 65.6739 35.55 65.6759L35.587 65.6829V66.0969H35.536V66.0999ZM30.469 62.4828H31.212L31.222 62.5069C31.8929 63.7173 32.6362 64.8861 33.448 66.0069C33.782 66.0069 34.13 65.9579 34.469 65.9579C34.808 65.9579 35.1509 66.0019 35.4919 66.0019V65.7629C35.2734 65.7546 35.0612 65.6882 34.8769 65.5704C34.6927 65.4526 34.5431 65.2878 34.4439 65.0929L32.5439 62.2649L32.597 62.2409C33.013 62.13 33.3821 61.8878 33.6495 61.5504C33.9169 61.2129 34.0682 60.7982 34.081 60.3679C34.081 58.8599 32.9069 58.5059 31.5379 58.5019C30.9599 58.5019 30.444 58.5429 29.786 58.5429C29.148 58.5429 28.503 58.5059 28.145 58.5019V58.7328H28.296C28.629 58.7328 29.112 58.7868 29.112 59.6078V65.1369C29.112 65.5759 28.705 65.7679 28.296 65.7749H28.149V66.0019C28.673 66.0019 29.17 65.9579 29.682 65.9579C30.291 65.9579 30.904 66.0019 31.506 66.0019V65.7749H31.353C30.861 65.7679 30.417 65.7069 30.417 64.8499V62.4799L30.469 62.4828ZM30.469 62.1829H30.42V58.8509L30.462 58.8429C30.667 58.8167 30.8733 58.803 31.0799 58.8019C31.2987 58.7872 31.518 58.8194 31.7234 58.8962C31.9287 58.9731 32.1152 59.0928 32.2706 59.2474C32.426 59.4021 32.5467 59.588 32.6245 59.793C32.7023 59.9979 32.7356 60.2171 32.722 60.4359C32.715 61.7359 32.096 62.1759 30.995 62.1829H30.469ZM31 62.0879C32.077 62.0809 32.625 61.7049 32.63 60.4389C32.6449 60.232 32.6151 60.0243 32.5426 59.83C32.4701 59.6356 32.3566 59.4591 32.2098 59.3126C32.063 59.166 31.8864 59.0527 31.692 58.9805C31.4975 58.9082 31.2899 58.8787 31.083 58.8939C30.8913 58.897 30.7 58.911 30.51 58.9359V62.0879H31Z" fill="#262425"/>
<path fill-rule="evenodd" clip-rule="evenodd" d="M42.926 63.9149L42.946 63.8909V59.8109C42.9656 59.679 42.9553 59.5444 42.916 59.417C42.8767 59.2896 42.8094 59.1726 42.719 59.0746C42.6285 58.9767 42.5172 58.9003 42.3933 58.851C42.2694 58.8017 42.1361 58.7808 42.003 58.7899H41.7669V58.4609C42.2779 58.4609 42.775 58.5029 43.287 58.5029C43.738 58.5029 44.1869 58.4609 44.6319 58.4609V58.7899H44.4659C44.0029 58.7899 43.494 58.875 43.494 60.171V65.1279C43.4876 65.4938 43.5097 65.8595 43.56 66.2219H43.1479L37.5479 59.976V64.4589C37.5479 65.4089 37.7309 65.7299 38.5689 65.7299H38.7519V66.059C38.2839 66.059 37.816 66.015 37.352 66.015C36.859 66.015 36.352 66.059 35.868 66.059V65.7299H36.019C36.767 65.7299 36.998 65.2299 36.998 64.3489V59.7689C36.9986 59.6392 36.9732 59.5107 36.9234 59.3909C36.8737 59.2711 36.8005 59.1623 36.7082 59.0712C36.6159 58.98 36.5064 58.9082 36.386 58.8599C36.2655 58.8116 36.1366 58.7878 36.0069 58.7899H35.8659V58.4609C36.2769 58.4609 36.706 58.5029 37.118 58.5029C37.442 58.5029 37.758 58.4609 38.087 58.4609L42.926 63.9149Z" fill="#262425"/>
<path fill-rule="evenodd" clip-rule="evenodd" d="M43.557 66.2689L43.107 66.2509L37.584 60.0959V64.4559C37.597 65.4059 37.7429 65.674 38.5639 65.684H38.795V66.1049H38.7459C38.2789 66.1049 37.8109 66.0569 37.3409 66.0569C36.8709 66.0569 36.354 66.1049 35.862 66.1049H35.813V65.684H36.0129C36.7319 65.679 36.9389 65.2159 36.9439 64.3469V59.767C36.9449 59.6434 36.9211 59.5209 36.8739 59.4067C36.8267 59.2926 36.7571 59.189 36.6692 59.1022C36.5812 59.0154 36.4768 58.9471 36.362 58.9014C36.2473 58.8556 36.1245 58.8334 36.0009 58.8359H35.813V58.4099H35.862C36.274 58.4099 36.703 58.452 37.114 58.452C37.431 58.452 37.748 58.4099 38.114 58.4269L42.901 63.8109V59.8109C42.893 58.9469 42.3159 58.8389 42.0009 58.8389H41.7159V58.413H41.764C42.276 58.413 42.78 58.455 43.284 58.455C43.73 58.455 44.174 58.413 44.624 58.413H44.6729V58.8389H44.4659C44.0149 58.8469 43.552 58.8879 43.54 60.1719V65.1219C43.5311 65.4875 43.5531 65.8532 43.6059 66.215L43.613 66.2689H43.557ZM43.146 66.1689H43.504C43.4582 65.8202 43.4378 65.4686 43.443 65.1169V60.1669C43.443 58.8669 43.996 58.7419 44.463 58.7369H44.573V58.5059C44.147 58.5129 43.716 58.5469 43.282 58.5469C42.782 58.5469 42.2979 58.5099 41.8029 58.5059V58.7369H42.003C42.1422 58.7299 42.2813 58.7533 42.4105 58.8055C42.5397 58.8577 42.656 58.9375 42.7512 59.0392C42.8464 59.141 42.9183 59.2624 42.9618 59.3948C43.0052 59.5272 43.0193 59.6676 43.003 59.806L42.984 63.918L42.964 63.9429L42.927 63.9789L38.087 58.5059C37.766 58.5059 37.447 58.5469 37.118 58.5469C36.711 58.5469 36.309 58.5099 35.907 58.5059V58.7369H36.0069C36.1424 58.736 36.2767 58.7619 36.4021 58.8132C36.5274 58.8645 36.6414 58.9401 36.7374 59.0357C36.8334 59.1313 36.9094 59.245 36.9612 59.3701C37.0129 59.4953 37.0393 59.6295 37.0389 59.765V64.3449C37.0389 65.2219 36.796 65.7739 36.016 65.7789L35.907 65.7719V66.0029C36.382 66.0029 36.8619 65.96 37.3409 65.96C37.7969 65.96 38.248 66.0029 38.698 66.0029V65.7769H38.5639C37.7069 65.7699 37.495 65.3989 37.488 64.4489V59.8489L43.146 66.1689ZM42.926 63.913L42.963 63.877L42.926 63.913ZM42.9 63.8889L42.89 63.877L42.9 63.8889Z" fill="#262425"/>
<path fill-rule="evenodd" clip-rule="evenodd" d="M46.373 64.4998C46.2641 64.7751 46.1827 65.0605 46.13 65.3518C46.13 65.6808 46.59 65.7298 46.951 65.7298H47.072V66.0588C46.634 66.0388 46.1909 66.0148 45.7519 66.0148C45.3619 66.0148 44.968 66.0388 44.578 66.0588V65.7298H44.644C44.8566 65.73 45.0634 65.6612 45.2335 65.5337C45.4036 65.4062 45.5276 65.2269 45.587 65.0228L47.326 60.0298C47.4981 59.591 47.6342 59.1388 47.733 58.6778C48.0776 58.5539 48.4094 58.3972 48.724 58.2098C48.7502 58.1956 48.7792 58.1874 48.8089 58.1858C48.8409 58.1858 48.8629 58.1858 48.8819 58.2218C48.9189 58.3048 48.948 58.4048 48.982 58.4948L50.982 64.1828C51.109 64.5648 51.2429 64.9668 51.3819 65.2938C51.4374 65.4351 51.5379 65.5541 51.6679 65.6324C51.798 65.7107 51.9501 65.7439 52.1009 65.7268H52.167V66.0558C51.675 66.0368 51.188 66.0118 50.667 66.0118C50.146 66.0118 49.591 66.0368 49.03 66.0558V65.7268H49.1519C49.4009 65.7268 49.827 65.6828 49.827 65.4178C49.7859 65.1488 49.7131 64.8856 49.61 64.6338L49.1839 63.3668H46.714L46.373 64.4998ZM47.961 59.6838H47.9439L46.9289 62.7628H48.968L47.961 59.6838Z" fill="#262425"/>
<path fill-rule="evenodd" clip-rule="evenodd" d="M52.171 66.0997C51.686 66.0757 51.194 66.0577 50.671 66.0577C50.135 66.0577 49.594 66.0757 49.042 66.0997H48.9859V65.6758H49.156C49.412 65.6758 49.782 65.6197 49.782 65.4147C49.7417 65.1497 49.6699 64.8906 49.568 64.6427L49.156 63.4128H46.756L46.415 64.5127C46.3106 64.7835 46.2315 65.0633 46.1789 65.3487C46.1789 65.6167 46.586 65.6767 46.951 65.6767H47.114V66.1007H47.066C46.634 66.0767 46.191 66.0597 45.753 66.0597C45.363 66.0597 44.9679 66.0767 44.5789 66.1007H44.53V65.6767H44.639C44.8422 65.6782 45.0403 65.6139 45.2038 65.4933C45.3673 65.3727 45.4874 65.2023 45.546 65.0077L47.285 60.0077C47.4555 59.5562 47.5994 59.0951 47.7159 58.6267C48.0598 58.5034 48.3917 58.3484 48.707 58.1637C48.7387 58.15 48.7725 58.1419 48.807 58.1397C48.8308 58.1375 48.8549 58.1419 48.8763 58.1527C48.8977 58.1635 48.9156 58.1802 48.9279 58.2007C48.9599 58.2907 48.9889 58.3877 49.0279 58.4757L51.0279 64.1687C51.1539 64.5507 51.2879 64.9527 51.4279 65.2767C51.4802 65.4085 51.5748 65.5194 51.6967 65.5918C51.8187 65.6642 51.9613 65.694 52.102 65.6767H52.212V66.1007H52.166L52.171 66.0997ZM49.087 65.9997C49.628 65.9797 50.156 65.9557 50.675 65.9557C51.175 65.9557 51.6519 65.9797 52.1269 65.9997V65.7677H52.107C51.9471 65.7855 51.7857 65.7499 51.6482 65.6663C51.5107 65.5827 51.4048 65.4559 51.347 65.3058C51.201 64.9768 51.075 64.5747 50.941 64.1917L48.941 58.4997C48.911 58.4137 48.8749 58.3167 48.8509 58.2387C48.8379 58.2267 48.843 58.2267 48.831 58.2267H48.812C48.7888 58.2279 48.7662 58.2344 48.7459 58.2457C48.4442 58.4317 48.1191 58.5767 47.779 58.6767C47.6814 59.1405 47.5477 59.5959 47.379 60.0387L45.6319 65.0327C45.5691 65.2463 45.4384 65.4336 45.2596 65.5663C45.0808 65.6989 44.8636 65.7696 44.641 65.7677H44.629V65.9997C44.999 65.9797 45.3759 65.9557 45.7519 65.9557C46.1729 65.9557 46.6039 65.9797 47.0179 65.9997V65.7677H46.952C46.592 65.7677 46.1 65.7267 46.088 65.3447C46.1373 65.0489 46.2171 64.7591 46.326 64.4797L46.375 64.4917L46.326 64.4797L46.685 63.3177H49.228L49.659 64.6067C49.7671 64.863 49.843 65.1317 49.885 65.4067C49.866 65.7407 49.41 65.7577 49.162 65.7647H49.089V65.9967L49.087 65.9997ZM46.86 62.7997L47.9079 59.6257H47.961V59.6747V59.6257H48L49.0329 62.7997H46.86ZM46.994 62.6997H48.899L47.952 59.7857L46.994 62.6997ZM47.92 59.6837L47.9439 59.6767L47.92 59.6837Z" fill="#262425"/>
<path fill-rule="evenodd" clip-rule="evenodd" d="M52.651 59.005C51.837 59.005 51.8049 59.199 51.6419 59.991H51.313C51.355 59.691 51.413 59.385 51.447 59.065C51.4886 58.7591 51.5091 58.4507 51.508 58.142H51.769C51.859 58.471 52.134 58.459 52.427 58.459H58.0389C58.3309 58.459 58.604 58.452 58.628 58.125L58.889 58.167C58.848 58.459 58.7969 58.756 58.7669 59.048C58.7369 59.34 58.743 59.638 58.743 59.93L58.4139 60.052C58.3949 59.645 58.341 59.005 57.614 59.005H55.831V64.795C55.831 65.635 56.2129 65.725 56.7309 65.725H56.938V66.054C56.517 66.054 55.7569 66.01 55.1679 66.01C54.5169 66.01 53.75 66.054 53.326 66.054V65.725H53.526C54.126 65.725 54.432 65.677 54.432 64.812V59H52.649L52.651 59.005Z" fill="#262425"/>
<path fill-rule="evenodd" clip-rule="evenodd" d="M56.938 66.0998C56.512 66.0998 55.752 66.0578 55.167 66.0578C54.517 66.0578 53.7489 66.0998 53.3249 66.0998H53.2769V65.6778H53.532C54.132 65.6608 54.373 65.6538 54.39 64.8088V59.0428H52.651V58.9498H54.487V64.8088C54.487 65.6828 54.1269 65.7688 53.5329 65.7688H53.374V66.0048C53.805 65.9998 54.536 65.9558 55.167 65.9558C55.735 65.9558 56.4669 65.9998 56.8969 66.0048L56.889 65.7688H56.7309C56.2069 65.7688 55.7829 65.6418 55.7829 64.7888V58.9498H57.615C58.344 58.9498 58.4409 59.5718 58.4649 59.9778L58.7039 59.8878C58.7039 59.6078 58.7039 59.3208 58.7209 59.0358C58.7529 58.7558 58.794 58.4748 58.831 58.2028L58.665 58.1708C58.616 58.4878 58.3139 58.5048 58.0389 58.4998H52.3709C52.1149 58.5068 51.837 58.4878 51.74 58.1828H51.557C51.5566 58.478 51.5345 58.7728 51.4909 59.0648C51.4669 59.3648 51.411 59.6538 51.369 59.9418H51.6059C51.7469 59.1818 51.8439 58.9418 52.6529 58.9498V59.0428C51.8529 59.0598 51.869 59.1938 51.693 59.9978L51.681 60.0338H51.2619L51.2669 59.9858C51.3159 59.6758 51.367 59.3718 51.401 59.0548C51.4452 58.7508 51.4673 58.444 51.467 58.1368V58.0998H51.808L51.8199 58.1318C51.8929 58.4068 52.093 58.4118 52.373 58.4118C52.393 58.4118 52.4099 58.4188 52.4289 58.4188H58.042C58.342 58.4118 58.565 58.4068 58.582 58.1188V58.0708L58.636 58.0778L58.936 58.1268L58.9289 58.1748C58.8879 58.4678 58.8459 58.7598 58.8149 59.0518C58.7839 59.3438 58.79 59.6418 58.79 59.9338V59.9658L58.761 59.9778L58.3709 60.1168V60.0558C58.3399 59.6488 58.2979 59.0558 57.6109 59.0558H55.8769V64.8028C55.8839 65.6188 56.21 65.6798 56.729 65.6888H56.985V66.1108L56.938 66.0998Z" fill="#262425"/>
<path fill-rule="evenodd" clip-rule="evenodd" d="M59.286 65.728H59.4439C59.8339 65.728 60.244 65.679 60.244 65.114V59.4089C60.244 58.8439 59.8299 58.7899 59.4439 58.7899H59.286V58.4609C59.71 58.4609 60.368 58.5029 60.899 58.5029C61.43 58.5029 62.099 58.4609 62.609 58.4609V58.7899H62.4549C62.0659 58.7899 61.655 58.8439 61.655 59.4089V65.114C61.655 65.681 62.0689 65.728 62.4549 65.728H62.609V66.0569C62.085 66.0569 61.435 66.0129 60.894 66.0129C60.353 66.0129 59.7149 66.0569 59.2889 66.0569V65.728H59.286Z" fill="#262425"/>
<path fill-rule="evenodd" clip-rule="evenodd" d="M62.609 66.0999C62.085 66.0999 61.435 66.0579 60.894 66.0579C60.353 66.0579 59.7149 66.0999 59.2889 66.0999H59.245V65.6779H59.4449C59.8349 65.6779 60.193 65.637 60.201 65.101V59.4009C60.201 58.8729 59.8349 58.8359 59.4449 58.8289H59.245V58.4099H59.2889C59.7149 58.4099 60.37 58.4509 60.901 58.4509C61.432 58.4509 62.1009 58.4099 62.6109 58.4099H62.66V58.8289H62.4599C62.0599 58.8359 61.7069 58.8699 61.6999 59.4009V65.101C61.7069 65.637 62.0649 65.6739 62.4599 65.6779H62.66V66.0999H62.609ZM62.558 65.9999V65.7679H62.458C62.069 65.7679 61.6059 65.7029 61.6059 65.0989V59.3989C61.6059 58.7989 62.069 58.731 62.458 58.731H62.558V58.4999C62.058 58.5069 61.427 58.541 60.899 58.541C60.371 58.541 59.7609 58.5049 59.3349 58.4999V58.731H59.4439C59.8269 58.731 60.29 58.7969 60.297 59.3989V65.0989C60.29 65.6989 59.8289 65.7679 59.4439 65.7679H59.3349V65.9999C59.7559 65.9929 60.368 65.9559 60.891 65.9559C61.414 65.9559 62.048 65.9999 62.558 65.9999Z" fill="#262425"/>
<path fill-rule="evenodd" clip-rule="evenodd" d="M66.95 58.293C69.266 58.293 71.115 59.7349 71.115 62.0519C71.1396 62.6007 71.0507 63.1486 70.8536 63.6614C70.6566 64.1741 70.3558 64.6406 69.97 65.0317C69.5842 65.4227 69.1217 65.7299 68.6117 65.9338C68.1017 66.1378 67.555 66.2341 67.006 66.2169C66.4779 66.248 65.9491 66.1697 65.4526 65.9869C64.9562 65.8041 64.5029 65.5208 64.121 65.1547C63.7391 64.7886 63.437 64.3475 63.2334 63.8593C63.0299 63.371 62.9292 62.8459 62.938 62.317C62.9302 61.7876 63.0287 61.262 63.2274 60.7712C63.4262 60.2805 63.7212 59.8346 64.0952 59.4598C64.4692 59.0851 64.9146 58.7891 65.4049 58.5894C65.8952 58.3896 66.4206 58.2902 66.95 58.2969M67.115 65.744C69.227 65.744 69.5971 63.8829 69.5971 62.2949C69.5971 60.7069 68.74 58.78 66.928 58.78C65.023 58.78 64.458 60.48 64.458 61.937C64.458 63.88 65.349 65.744 67.115 65.744Z" fill="#262425"/>
<path fill-rule="evenodd" clip-rule="evenodd" d="M62.886 62.315C62.879 61.7794 62.9794 61.2479 63.1811 60.7517C63.3829 60.2555 63.682 59.8048 64.0608 59.4261C64.4396 59.0474 64.8904 58.7484 65.3866 58.5468C65.8828 58.3451 66.4144 58.2449 66.9499 58.252V58.344C66.4264 58.3369 65.9067 58.4347 65.4216 58.6317C64.9365 58.8287 64.4958 59.1209 64.1255 59.4911C63.7551 59.8612 63.4628 60.3018 63.2655 60.7868C63.0682 61.2718 62.9702 61.7915 62.977 62.315C62.9684 62.8383 63.0679 63.3578 63.2694 63.8408C63.4709 64.3239 63.7701 64.76 64.1481 65.1221C64.526 65.4841 64.9747 65.7641 65.4659 65.9446C65.9572 66.1251 66.4806 66.2022 67.003 66.171C67.5462 66.1881 68.087 66.0928 68.5917 65.8911C69.0963 65.6895 69.5539 65.3858 69.9358 64.9991C70.3177 64.6125 70.6156 64.1512 70.8109 63.644C71.0062 63.1369 71.0948 62.5949 71.071 62.052C71.071 59.76 69.247 58.352 66.947 58.342V58.249C69.283 58.249 71.156 59.704 71.161 62.049C71.185 62.6043 71.0943 63.1585 70.8945 63.6771C70.6947 64.1957 70.39 64.6675 69.9996 65.0631C69.6092 65.4587 69.1414 65.7695 68.6255 65.9761C68.1095 66.1828 67.5565 66.2807 67.001 66.264C66.4669 66.2935 65.9324 66.2129 65.4308 66.0271C64.9292 65.8413 64.4711 65.5542 64.0852 65.1838C63.6992 64.8135 63.3937 64.3676 63.1874 63.8741C62.9811 63.3805 62.8784 62.8499 62.886 62.315ZM64.409 61.93C64.416 60.466 64.986 58.73 66.928 58.73C68.777 58.737 69.639 60.693 69.646 62.294C69.639 63.879 69.269 65.794 67.115 65.794V65.7C69.183 65.693 69.5439 63.88 69.5489 62.3C69.5539 60.72 68.696 58.833 66.928 58.833C65.062 58.833 64.514 60.495 64.506 61.942C64.506 63.881 65.396 65.7 67.115 65.708V65.8C65.308 65.79 64.415 63.9 64.409 61.939" fill="#262425"/>
<path fill-rule="evenodd" clip-rule="evenodd" d="M78.4499 63.9149L78.474 63.8909V59.8109C78.4921 59.6789 78.4807 59.5446 78.4406 59.4175C78.4006 59.2905 78.3329 59.1739 78.2423 59.0762C78.1517 58.9785 78.0405 58.9022 77.9168 58.8527C77.7931 58.8032 77.6599 58.7817 77.5269 58.7899H77.2879V58.4609C77.7989 58.4609 78.299 58.5029 78.808 58.5029C79.258 58.5029 79.702 58.4609 80.145 58.4609V58.7899H79.982C79.526 58.7899 79.015 58.875 79.015 60.171V65.1279C79.0077 65.4938 79.0298 65.8596 79.081 66.2219H78.667L73.0589 59.976V64.4589C73.0589 65.4089 73.249 65.7299 74.082 65.7299H74.27V66.059C73.802 66.059 73.332 66.015 72.864 66.015C72.379 66.015 71.873 66.059 71.386 66.059V65.7299H71.5389C72.2919 65.7299 72.5179 65.2299 72.5179 64.3489V59.7689C72.5185 59.6392 72.4932 59.5107 72.4435 59.3909C72.3937 59.2711 72.3205 59.1623 72.2282 59.0712C72.1359 58.98 72.0264 58.9082 71.906 58.8599C71.7856 58.8116 71.6567 58.7878 71.5269 58.7899H71.385V58.4609C71.8 58.4609 72.226 58.5029 72.633 58.5029C72.962 58.5029 73.2779 58.4609 73.6049 58.4609L78.4499 63.9149Z" fill="#262425"/>
<path fill-rule="evenodd" clip-rule="evenodd" d="M79.0849 66.2689L78.635 66.2509L73.113 60.0959V64.4559C73.122 65.4059 73.271 65.674 74.084 65.679H74.321V66.1049H74.2719C73.8039 66.1049 73.3339 66.064 72.8669 66.064C72.3819 66.064 71.8819 66.1049 71.3879 66.1049H71.339V65.679H71.5389C72.2579 65.679 72.465 65.2159 72.469 64.3469V59.767C72.4692 59.6437 72.4449 59.5216 72.3976 59.4078C72.3502 59.294 72.2806 59.1908 72.193 59.1041C72.1053 59.0175 72.0013 58.9491 71.8869 58.9031C71.7726 58.857 71.6502 58.8342 71.5269 58.8359H71.339V58.418H71.3879C71.8019 58.418 72.2279 58.4589 72.6419 58.4589C72.9589 58.4589 73.2759 58.4179 73.6419 58.4269L78.4239 63.8109V59.8109C78.4159 58.9469 77.839 58.8439 77.524 58.8389H77.2359V58.421H77.285C77.797 58.421 78.296 58.4619 78.805 58.4619C79.249 58.4619 79.6919 58.421 80.1429 58.421H80.191V58.8389H79.979C79.536 58.8519 79.073 58.8879 79.061 60.1719V65.1219C79.0531 65.4876 79.0734 65.8534 79.1219 66.2159L79.134 66.2689H79.0799H79.0849ZM78.671 66.1689H79.029C78.984 65.8201 78.9639 65.4686 78.969 65.1169V60.1669C78.969 58.8589 79.524 58.7419 79.984 58.7369H80.1059V58.5059C79.6749 58.5129 79.241 58.5469 78.806 58.5469C78.306 58.5469 77.82 58.5099 77.328 58.5059V58.7369H77.5219C77.6607 58.7302 77.7993 58.7539 77.9279 58.8063C78.0566 58.8588 78.1723 58.9387 78.2668 59.0406C78.3613 59.1424 78.4324 59.2637 78.4751 59.3959C78.5178 59.5281 78.5311 59.6681 78.514 59.806L78.504 63.918L78.485 63.9429L78.448 63.9789L73.608 58.5059C73.286 58.5059 72.97 58.5469 72.641 58.5469C72.241 58.5469 71.832 58.5099 71.43 58.5059V58.7369H71.53C71.6659 58.7358 71.8007 58.7615 71.9266 58.8126C72.0525 58.8637 72.1671 58.9391 72.2638 59.0347C72.3604 59.1302 72.4372 59.2439 72.4897 59.3692C72.5423 59.4945 72.5695 59.6291 72.5699 59.765V64.3449C72.5699 65.2219 72.326 65.7739 71.542 65.7789L71.432 65.7719V66.0029C71.905 66.0029 72.3919 65.96 72.8669 65.96C73.3219 65.96 73.773 66.0029 74.224 66.0029V65.7769H74.082C73.23 65.7699 73.0179 65.3989 73.0179 64.4489V59.8489L78.671 66.1689ZM78.4499 63.913L78.4859 63.877L78.4499 63.913ZM78.4279 63.8889L78.42 63.877L78.4279 63.8889Z" fill="#262425"/>
<path fill-rule="evenodd" clip-rule="evenodd" d="M81.9 64.4998C81.7921 64.7749 81.7129 65.0604 81.6639 65.3518C81.6639 65.6808 82.119 65.7298 82.477 65.7298H82.599V66.0588C82.161 66.0388 81.717 66.0148 81.281 66.0148C80.887 66.0148 80.497 66.0388 80.107 66.0588V65.7298H80.1679C80.3814 65.7313 80.5895 65.663 80.7606 65.5354C80.9317 65.4078 81.0565 65.2278 81.1159 65.0228L82.862 60.0298C83.0287 59.5897 83.1623 59.1378 83.2619 58.6778C83.6064 58.5537 83.9383 58.397 84.253 58.2098C84.2795 58.1955 84.3088 58.1872 84.339 58.1858C84.368 58.1858 84.392 58.1858 84.409 58.2218C84.446 58.3048 84.475 58.4048 84.509 58.4948L86.516 64.1828C86.643 64.5648 86.772 64.9668 86.916 65.2938C86.9711 65.4353 87.0715 65.5545 87.2016 65.6329C87.3317 65.7112 87.4841 65.7442 87.635 65.7268H87.6999V66.0558C87.2059 66.0368 86.7209 66.0118 86.1999 66.0118C85.6789 66.0118 85.124 66.0368 84.563 66.0558V65.7268H84.685C84.934 65.7268 85.36 65.6828 85.36 65.4178C85.3194 65.1485 85.2458 64.8852 85.141 64.6338L84.722 63.3668H82.2469L81.9 64.4998ZM83.488 59.6838H83.469L82.453 62.7628H84.489L83.488 59.6838Z" fill="#262425"/>
<path fill-rule="evenodd" clip-rule="evenodd" d="M87.6999 66.0997C87.2129 66.0797 86.7209 66.0577 86.2049 66.0577C85.6689 66.0577 85.1279 66.0827 84.5749 66.0997H84.5269V65.6777H84.6899C84.9449 65.6777 85.318 65.6178 85.318 65.4128C85.281 65.1471 85.209 64.8875 85.104 64.6407L84.682 63.4108H82.282L81.9439 64.5107C81.8384 64.781 81.7583 65.0606 81.7049 65.3458C81.7049 65.6138 82.112 65.6797 82.477 65.6797H82.6429V66.1008H82.594C82.156 66.0818 81.712 66.0597 81.281 66.0597C80.892 66.0597 80.502 66.0838 80.107 66.1008H80.058V65.6797H80.1679C80.3714 65.6792 80.5693 65.6133 80.7324 65.4917C80.8955 65.3702 81.0152 65.1995 81.0739 65.0047L82.813 60.0047C82.981 59.5547 83.1252 59.096 83.245 58.6307C83.5875 58.5021 83.919 58.3456 84.2359 58.1628C84.2677 58.1493 84.3016 58.1411 84.336 58.1387C84.359 58.1356 84.3824 58.1398 84.4029 58.1507C84.4234 58.1617 84.4398 58.1789 84.4499 58.1998C84.4869 58.2848 84.516 58.3867 84.55 58.4747L86.55 64.1678C86.677 64.5498 86.8109 64.9517 86.9499 65.2757C87.0026 65.408 87.0971 65.5193 87.219 65.5928C87.3408 65.6662 87.4835 65.6979 87.625 65.6827H87.735V66.1037H87.688L87.6999 66.0997ZM84.6169 65.9997C85.1569 65.9797 85.6879 65.9557 86.2049 65.9557C86.7219 65.9557 87.184 65.9797 87.659 65.9997V65.7677H87.64C87.48 65.7861 87.3184 65.7506 87.1808 65.667C87.0431 65.5833 86.9373 65.4563 86.88 65.3058C86.733 64.9768 86.607 64.5748 86.473 64.1918L84.473 58.4997C84.441 58.4137 84.407 58.3168 84.38 58.2388C84.368 58.2268 84.3729 58.2267 84.3609 58.2267H84.344C84.3223 58.2273 84.3011 58.2338 84.2829 58.2457C83.9787 58.4304 83.6521 58.5753 83.311 58.6767C83.2134 59.1405 83.0797 59.5959 82.911 60.0387L81.1639 65.0328C81.1005 65.246 80.9697 65.4329 80.791 65.5654C80.6123 65.6979 80.3954 65.769 80.1729 65.7677H80.161V65.9997C80.531 65.9797 80.909 65.9557 81.286 65.9557C81.705 65.9557 82.139 65.9797 82.558 65.9997V65.7677H82.485C82.127 65.7677 81.6319 65.7267 81.6219 65.3447C81.671 65.0482 81.7528 64.7581 81.8659 64.4797L81.907 64.4917L81.8659 64.4797L82.224 63.3177H84.76L85.193 64.6067C85.2992 64.863 85.3721 65.1319 85.41 65.4067C85.398 65.7407 84.943 65.7578 84.692 65.7648H84.619V65.9968L84.6169 65.9997ZM82.39 62.7997L83.438 59.6257H83.4909V59.6747V59.6257H83.5279L84.556 62.7997H82.39ZM82.524 62.6998H84.4239L83.4759 59.7858L82.524 62.6998ZM83.447 59.6838L83.472 59.6767L83.447 59.6838Z" fill="#262425"/>
<path fill-rule="evenodd" clip-rule="evenodd" d="M90.4439 64.9899C90.4439 65.4279 90.7439 65.5549 91.0949 65.5989C91.5726 65.6387 92.0531 65.6303 92.529 65.5739C92.7341 65.5523 92.9325 65.4894 93.1126 65.389C93.2927 65.2887 93.4507 65.1529 93.577 64.9899C93.7308 64.7484 93.8436 64.4832 93.911 64.2049H94.227C94.105 64.8259 93.954 65.4329 93.827 66.0539C92.872 66.0539 91.913 66.0099 90.958 66.0099C90.003 66.0099 89.041 66.0539 88.081 66.0539V65.7249H88.234C88.624 65.7249 89.0479 65.6769 89.0479 65.0019V59.4019C89.0479 58.8359 88.624 58.7829 88.234 58.7829H88.081V58.4539C88.658 58.4539 89.223 58.4949 89.801 58.4949C90.356 58.4949 90.9009 58.4539 91.4549 58.4539V58.7829H91.182C90.77 58.7829 90.446 58.7949 90.446 59.3719L90.4439 64.9899Z" fill="#262425"/>
<path fill-rule="evenodd" clip-rule="evenodd" d="M93.8249 66.0997C92.8659 66.0997 91.911 66.0577 90.956 66.0577C90.001 66.0577 89.0389 66.0997 88.0789 66.0997H88.03V65.6777H88.2299C88.6299 65.6687 88.9969 65.6418 89.0019 64.9988V59.3987C88.9949 58.8697 88.6249 58.8327 88.2299 58.8257H88.03V58.4067H88.0789C88.6559 58.4067 89.2209 58.4487 89.7989 58.4487C90.3539 58.4487 90.899 58.4067 91.453 58.4067H91.494V58.8257H91.177C90.758 58.8377 90.4909 58.8138 90.4859 59.3668V64.9788C90.4929 65.3858 90.754 65.4907 91.092 65.5397C91.287 65.5567 91.492 65.5638 91.692 65.5638C91.9679 65.5645 92.2435 65.5504 92.5179 65.5217C92.7158 65.4983 92.9071 65.4356 93.0805 65.3374C93.254 65.2392 93.406 65.1074 93.5279 64.9498C93.6844 64.7168 93.7961 64.4567 93.857 64.1827L93.87 64.1458H94.276L94.269 64.2067C94.147 64.8277 93.996 65.4348 93.862 66.0558L93.8549 66.0917H93.823L93.8249 66.0997ZM93.784 65.9998C93.911 65.4098 94.0519 64.8327 94.1739 64.2477H93.947C93.8808 64.5202 93.7678 64.779 93.613 65.0128C93.3445 65.3474 92.9551 65.5629 92.529 65.6127C92.2525 65.6448 91.9744 65.6611 91.696 65.6617C91.489 65.6617 91.2849 65.6498 91.0899 65.6368C90.7289 65.5958 90.39 65.4417 90.39 64.9797V59.3668C90.39 58.7578 90.773 58.7288 91.182 58.7288H91.4079V58.4977C90.8729 58.5047 90.344 58.5388 89.801 58.5388C89.236 58.5388 88.683 58.5017 88.13 58.4977V58.7288H88.2299C88.6199 58.7288 89.093 58.7948 89.093 59.3958V64.9998C89.093 65.6998 88.6199 65.7717 88.2299 65.7717H88.13V66.0027C89.068 66.0027 90.008 65.9598 90.958 65.9598C91.908 65.9598 92.843 66.0057 93.786 66.0057" fill="#262425"/>
</svg>
