<svg width="176" height="33" viewBox="0 0 176 33" fill="none" xmlns="http://www.w3.org/2000/svg">
<path d="M86.713 9.76196C81.713 9.76196 78.194 13.3679 78.166 19.1819C78.1491 20.3143 78.3592 21.4387 78.7838 22.4885C79.2085 23.5384 79.8392 24.4925 80.6386 25.2947C81.4381 26.0968 82.3901 26.7307 83.4386 27.1589C84.487 27.5872 85.6105 27.8012 86.743 27.7881C89.331 27.7881 90.929 27.382 91.86 26.624V23.687C90.515 24.2842 89.0564 24.5821 87.585 24.5601C84.911 24.5601 82.7589 23.105 82.4099 20.78L82.382 20.5801H85.493C88.43 20.5801 90.493 20.3169 91.802 19.6799C92.4101 19.4112 92.9176 18.9569 93.2517 18.3821C93.5859 17.8072 93.7295 17.1414 93.662 16.48C93.6646 15.5775 93.4849 14.6838 93.1336 13.8525C92.7824 13.0212 92.2668 12.2695 91.6178 11.6423C90.9688 11.0152 90.1998 10.5257 89.357 10.2031C88.5141 9.88053 87.6148 9.73135 86.713 9.76489M88.747 17.4141C87.371 17.7662 85.9488 17.9032 84.531 17.8201H82.351V17.6201L82.379 17.0381C82.3883 15.9973 82.8038 15.0011 83.5371 14.2625C84.2704 13.5238 85.2633 13.1009 86.304 13.084C87.2096 13.0431 88.1052 13.2879 88.864 13.7839C89.1874 14.0321 89.4461 14.3547 89.6181 14.7244C89.7901 15.094 89.8704 15.4997 89.852 15.907C89.8797 16.2491 89.784 16.59 89.5822 16.8677C89.3804 17.1454 89.0859 17.3415 88.752 17.4209M95.818 16.489V27.509H99.918V17.303C99.8253 16.2263 100.125 15.1525 100.761 14.2791C101.068 13.9536 101.445 13.7009 101.862 13.5398C102.28 13.3787 102.729 13.3131 103.175 13.3479C103.543 13.3452 103.912 13.3744 104.275 13.4351V10.178C103.63 9.8727 102.923 9.72331 102.21 9.74194C97.616 9.77194 95.81 13.029 95.81 16.489M46.062 27.509V5.32593H41.992V27.5L46.062 27.509ZM57.0819 9.77197C51.6159 9.77197 49.26 13.493 49.232 17.158V27.5H53.302V17.4399C53.2578 16.3461 53.5864 15.2697 54.234 14.387C54.538 14.0315 54.9175 13.7484 55.3448 13.5581C55.772 13.3678 56.2364 13.2753 56.7039 13.2871C57.2191 13.2583 57.7345 13.3395 58.2159 13.5251C58.6972 13.7108 59.1336 13.9967 59.4959 14.364C60.2327 15.337 60.5845 16.5476 60.484 17.7639V27.5029H64.555V17.3799C64.555 12.4669 61.1809 9.76196 57.0819 9.76196M71.736 5.31396H67.7V21.334C67.728 25.404 69.765 27.7881 74.185 27.8181C76.076 27.8181 77.178 27.208 77.645 26.218V23.689C76.7069 24.0387 75.7082 24.1969 74.708 24.1541C74.3052 24.1842 73.9005 24.1297 73.5199 23.9944C73.1394 23.859 72.7913 23.6456 72.498 23.3679C71.9121 22.6389 71.6305 21.7118 71.7119 20.78V13.28H75.2589C77.0049 13.28 77.7299 12.1801 77.7299 11.3611V9.73291H71.74V5.31494L71.736 5.31396ZM148.928 9.76196C143.461 9.76196 141.106 13.4829 141.078 17.1479L141.106 27.499H145.148V17.439C145.099 16.3445 145.428 15.2666 146.08 14.386C146.384 14.0304 146.763 13.7472 147.191 13.5569C147.618 13.3666 148.082 13.2739 148.55 13.2859C149.067 13.2547 149.585 13.3371 150.068 13.5271C150.55 13.7171 150.985 14.0103 151.342 14.386C152.076 15.3506 152.427 16.5521 152.33 17.76V27.499H156.372V17.3799C156.4 12.4669 153.057 9.76196 148.928 9.76196ZM115.056 9.76196C114.135 9.77333 113.233 10.0197 112.434 10.4775C111.635 10.9353 110.966 11.5893 110.491 12.3779L110.171 12.843V5.31104H106.129V19.0649C106.129 24.9089 109.646 27.8159 114.212 27.8159C119.412 27.8159 122.702 23.7159 122.702 18.4829C122.702 13.3399 119.39 9.76196 115.056 9.76196ZM114.678 24.3621C114.057 24.4063 113.435 24.3059 112.86 24.0688C112.285 23.8318 111.772 23.4647 111.363 22.9961C110.479 21.6458 110.07 20.0395 110.2 18.4309C110.2 15.6109 111.915 13.3139 114.242 13.2849C114.848 13.2366 115.456 13.3328 116.017 13.5654C116.578 13.798 117.076 14.1605 117.47 14.623C118.226 15.582 118.604 17.037 118.604 19.217C118.575 22.154 116.975 24.3621 114.678 24.3621ZM131.048 9.76196C129.178 9.66681 127.332 10.2106 125.813 11.304V14.1521C127.238 13.474 128.801 13.1357 130.379 13.1641C131.485 13.0745 132.592 13.3284 133.549 13.8911C133.91 14.2347 134.187 14.6571 134.359 15.1255C134.53 15.5938 134.591 16.0954 134.536 16.5911V17H132.791C126.278 17.028 124.127 19.3249 124.127 22.3799C124.127 25.5189 126.918 27.8159 131.076 27.8159H131.976C135.842 27.8159 138.517 25.3161 138.517 21.6531V17.582C138.547 11.39 134.972 9.79296 131.047 9.76196M134.594 21.6831C134.622 22.0787 134.57 22.4756 134.44 22.8503C134.31 23.2251 134.106 23.5697 133.839 23.863C133.529 24.1301 133.168 24.3319 132.778 24.4568C132.389 24.5817 131.978 24.6271 131.57 24.5901C130.732 24.6331 129.9 24.4202 129.186 23.98C128.903 23.7814 128.675 23.5149 128.522 23.2048C128.37 22.8948 128.298 22.5513 128.313 22.2061C128.288 21.8386 128.367 21.4714 128.542 21.1472C128.717 20.823 128.98 20.555 129.301 20.374C130.408 19.8955 131.616 19.6957 132.818 19.792H134.592V21.6831H134.594ZM168.001 18.312L167.914 18.1941L168.001 18.0769C170.221 15.3226 172.579 12.683 175.066 10.168H172.827C172.215 10.0972 171.594 10.1589 171.007 10.3486C170.421 10.5384 169.882 10.8519 169.427 11.2681C167.454 13.2589 165.636 15.3984 163.991 17.668L163.672 18.104L163.7 5.31006H159.6V27.4651H163.7V18.4819L164.02 18.918C165.923 21.5573 167.991 24.073 170.213 26.45C170.972 27.1629 171.964 27.5763 173.005 27.613C173.411 27.6599 173.823 27.6106 174.207 27.4692C174.591 27.3279 174.936 27.0983 175.215 26.7991C174.049 25.4341 169.399 19.999 168.003 18.311" fill="#01A14E"/>
<path d="M4.95297 0.545898C3.83232 0.554078 2.76033 1.0049 1.97061 1.80005C1.18089 2.5952 0.737467 3.67034 0.736969 4.79102V32.2361H28.213C29.3382 32.235 30.4171 31.7874 31.2127 30.9917C32.0084 30.196 32.4559 29.1172 32.4569 27.9919V0.545898H4.95297ZM25.046 23.429L8.15298 26.481V9.44312L25.046 6.39111V23.429Z" fill="#0860A8"/>
</svg>
