<svg width="89" height="69" viewBox="0 0 89 69" fill="none" xmlns="http://www.w3.org/2000/svg">
<path d="M86.372 67.4999V67.676H86.5349C86.5657 67.6764 86.596 67.6688 86.623 67.6539C86.6335 67.646 86.642 67.6357 86.6479 67.6239C86.6538 67.6121 86.6569 67.5991 86.657 67.5859C86.657 67.573 86.6539 67.5603 86.648 67.5488C86.6421 67.5373 86.6335 67.5275 86.623 67.52C86.5968 67.5033 86.5659 67.4955 86.5349 67.4979H86.372V67.4999ZM86.537 67.3759C86.608 67.3717 86.6785 67.3914 86.737 67.4319C86.76 67.4506 86.7782 67.4744 86.7901 67.5016C86.8019 67.5287 86.807 67.5584 86.805 67.588C86.8063 67.6135 86.8019 67.639 86.7923 67.6627C86.7826 67.6864 86.7678 67.7076 86.749 67.7249C86.7044 67.7632 86.6486 67.786 86.59 67.7899L86.81 68.041H86.642L86.442 67.793H86.377V68.041H86.235V67.3759H86.537ZM86.493 68.27C86.5675 68.2704 86.6415 68.2555 86.71 68.226C86.8423 68.1693 86.9478 68.0641 87.005 67.9319C87.0485 67.8302 87.0604 67.7177 87.0392 67.6091C87.0179 67.5005 86.9645 67.4008 86.886 67.3229C86.8351 67.2725 86.7755 67.2319 86.71 67.2029C86.6412 67.1747 86.5673 67.1607 86.493 67.1619C86.418 67.1611 86.3436 67.1751 86.274 67.2029C86.2064 67.2303 86.1452 67.2711 86.094 67.3229C86.0164 67.4026 85.964 67.5032 85.9432 67.6124C85.9224 67.7215 85.9341 67.8344 85.977 67.937C86.0036 68.0027 86.0434 68.0622 86.094 68.1119C86.2009 68.2164 86.3445 68.2749 86.494 68.275M86.494 67.0009C86.6874 67.0012 86.873 67.0773 87.011 67.213C87.1127 67.3129 87.182 67.441 87.2098 67.5809C87.2376 67.7207 87.2227 67.8657 87.167 67.9969C87.1302 68.0826 87.0773 68.1604 87.011 68.226C86.9437 68.2911 86.8651 68.3433 86.779 68.3799C86.6891 68.4189 86.5919 68.4379 86.494 68.4359C86.3956 68.4356 86.2982 68.4166 86.2069 68.3799C86.1199 68.3438 86.0406 68.2915 85.973 68.226C85.9074 68.1578 85.8554 68.0777 85.82 67.9899C85.7643 67.8587 85.7493 67.7137 85.7771 67.5739C85.805 67.4341 85.8743 67.3058 85.976 67.2059C86.0421 67.139 86.1214 67.0865 86.209 67.0519C86.3011 67.0141 86.4004 66.9964 86.5 66.9999M19.268 64.4399C19.2926 64.015 19.441 63.6065 19.6949 63.2649C19.9488 62.9233 20.2972 62.6634 20.697 62.5173C21.0968 62.3713 21.5307 62.3455 21.945 62.443C22.3594 62.5405 22.7361 62.7571 23.0288 63.0662C23.3215 63.3752 23.5174 63.7632 23.5923 64.1823C23.6672 64.6013 23.6178 65.0331 23.4503 65.4244C23.2828 65.8157 23.0044 66.1494 22.6494 66.3844C22.2945 66.6194 21.8786 66.7455 21.453 66.7469C21.1545 66.7506 20.8586 66.6925 20.5837 66.5763C20.3088 66.46 20.061 66.2882 19.8557 66.0715C19.6505 65.8548 19.4924 65.598 19.3912 65.3172C19.2901 65.0364 19.2481 64.7377 19.268 64.4399ZM25.102 64.4399V60.835H23.536V61.7119C23.2685 61.3673 22.9224 61.0917 22.5266 60.9082C22.1308 60.7247 21.6968 60.6385 21.261 60.6569C20.2889 60.7043 19.3723 61.1239 18.7011 61.8286C18.03 62.5333 17.6556 63.4692 17.6556 64.4424C17.6556 65.4157 18.03 66.3516 18.7011 67.0563C19.3723 67.761 20.2889 68.1806 21.261 68.228C21.6969 68.2466 22.1309 68.1605 22.5267 67.977C22.9225 67.7934 23.2686 67.5177 23.536 67.1729V68.0479H25.0999V64.4399H25.102ZM78.05 64.4399C78.0744 64.0148 78.2226 63.606 78.4765 63.2641C78.7304 62.9222 79.0788 62.6621 79.4788 62.5157C79.8787 62.3694 80.3127 62.3434 80.7273 62.4408C81.1419 62.5382 81.5189 62.7547 81.8119 63.0638C82.1049 63.3728 82.3011 63.7609 82.3762 64.1801C82.4513 64.5993 82.4021 65.0313 82.2346 65.4229C82.0672 65.8144 81.7888 66.1484 81.4339 66.3837C81.0789 66.619 80.6628 66.7453 80.237 66.7469C79.9383 66.7511 79.6421 66.6933 79.3669 66.5772C79.0917 66.4611 78.8435 66.2893 78.638 66.0726C78.4326 65.8558 78.2742 65.5989 78.173 65.3179C78.0718 65.0369 78.0299 64.7379 78.05 64.4399ZM83.886 64.4399V57.9399H82.317V61.7109C82.0495 61.3663 81.7034 61.0908 81.3076 60.9072C80.9118 60.7237 80.4778 60.6375 80.042 60.6559C79.0699 60.7034 78.1533 61.1229 77.4821 61.8276C76.811 62.5323 76.4366 63.4683 76.4366 64.4415C76.4366 65.4147 76.811 66.3506 77.4821 67.0553C78.1533 67.76 79.0699 68.1795 80.042 68.2269C80.4779 68.2457 80.9119 68.1597 81.3078 67.9761C81.7036 67.7926 82.0497 67.5168 82.317 67.1719V68.0469H83.886V64.4399ZM44.551 62.0599C45.0246 62.0508 45.4824 62.2298 45.8243 62.5576C46.1662 62.8854 46.3642 63.3354 46.375 63.809H42.636C42.6636 63.3251 42.8794 62.8713 43.2373 62.5444C43.5951 62.2176 44.0666 62.0437 44.551 62.0599ZM44.5819 60.655C43.6032 60.7047 42.6818 61.1318 42.0113 61.8466C41.3409 62.5613 40.9735 63.5082 40.9865 64.4881C40.9994 65.468 41.3917 66.4048 42.0808 67.1016C42.7699 67.7984 43.7022 68.2011 44.682 68.2249C45.7577 68.2633 46.8098 67.9038 47.637 67.215L46.869 66.0529C46.272 66.5299 45.5331 66.7945 44.769 66.8049C44.2505 66.8489 43.7353 66.689 43.3327 66.3593C42.9302 66.0296 42.672 65.5559 42.6129 65.0389H47.965C47.98 64.8389 47.997 64.647 47.997 64.439C47.98 62.193 46.5909 60.6559 44.5739 60.6559M63.494 64.439C63.5182 64.0137 63.6663 63.6047 63.9202 63.2626C64.1741 62.9205 64.5225 62.6602 64.9226 62.5139C65.3226 62.3675 65.7568 62.3413 66.1715 62.4388C66.5862 62.5362 66.9633 62.7529 67.2563 63.0621C67.5493 63.3714 67.7454 63.7596 67.8204 64.179C67.8954 64.5983 67.8459 65.0305 67.6782 65.4221C67.5105 65.8136 67.2318 66.1476 66.8766 66.3826C66.5213 66.6177 66.105 66.7437 65.679 66.7449C65.3806 66.7486 65.0848 66.6906 64.81 66.5744C64.5352 66.4582 64.2873 66.2864 64.0821 66.0698C63.8769 65.8532 63.7187 65.5966 63.6175 65.3159C63.5163 65.0352 63.4742 64.7367 63.494 64.439ZM69.328 64.439V60.8389H67.762V61.7159C67.4944 61.3715 67.1482 61.096 66.7525 60.9125C66.3567 60.729 65.9228 60.6427 65.487 60.6609C64.5149 60.7084 63.5983 61.1279 62.9272 61.8326C62.256 62.5373 61.8816 63.4732 61.8816 64.4464C61.8816 65.4196 62.256 66.3556 62.9272 67.0603C63.5983 67.765 64.5149 68.1845 65.487 68.2319C65.9229 68.2506 66.3569 68.1646 66.7527 67.981C67.1485 67.7975 67.4946 67.5217 67.762 67.1769V68.0519H69.328V64.442V64.439ZM54.644 64.439C54.6232 64.9466 54.7089 65.453 54.8955 65.9255C55.0822 66.3981 55.3656 66.8264 55.7276 67.1829C56.0897 67.5393 56.5223 67.8161 56.9977 67.9954C57.473 68.1747 57.9807 68.2525 58.4879 68.2239C59.4286 68.272 60.353 67.9651 61.078 67.364L60.325 66.0969C59.7822 66.5112 59.1198 66.7386 58.437 66.7449C57.8502 66.7083 57.2994 66.4493 56.8968 66.0208C56.4942 65.5922 56.2701 65.0264 56.2701 64.4384C56.2701 63.8505 56.4942 63.2846 56.8968 62.8561C57.2994 62.4276 57.8502 62.1686 58.437 62.132C59.1196 62.1396 59.7816 62.3668 60.325 62.78L61.078 61.5129C60.3524 60.9127 59.4284 60.6059 58.4879 60.653C57.9806 60.6245 57.473 60.7025 56.9976 60.8819C56.5222 61.0613 56.0896 61.3382 55.7276 61.6947C55.3656 62.0513 55.0822 62.4796 54.8955 62.9522C54.7089 63.4248 54.6232 63.9313 54.644 64.439ZM74.844 60.6559C74.4618 60.6448 74.0837 60.7368 73.7494 60.9223C73.4151 61.1078 73.1368 61.3799 72.9439 61.71V60.8359H71.4V68.041H72.969V63.9999C72.969 62.8059 73.4809 62.1429 74.506 62.1429C74.8413 62.1382 75.1744 62.1997 75.486 62.3239L75.968 60.8469C75.6106 60.72 75.2342 60.6544 74.8549 60.653M32.8549 61.408C31.968 60.8807 30.9482 60.6194 29.917 60.655C28.092 60.655 26.917 61.5299 26.917 62.9619C26.917 64.1359 27.791 64.862 29.404 65.088L30.145 65.1879C31.004 65.3099 31.409 65.5339 31.409 65.9409C31.409 66.4989 30.839 66.8149 29.767 66.8149C28.9053 66.8403 28.0601 66.5755 27.367 66.0629L26.631 67.2859C27.5443 67.9239 28.6384 68.2517 29.752 68.2209C31.832 68.2209 33.038 67.2419 33.038 65.8679C33.038 64.6009 32.088 63.9389 30.519 63.7119L29.781 63.6049C29.104 63.5169 28.558 63.3809 28.558 62.8979C28.558 62.3719 29.07 62.056 29.93 62.056C30.7191 62.0667 31.4924 62.2795 32.176 62.674L32.853 61.408H32.8549ZM53.073 60.655C52.6906 60.6435 52.3123 60.7355 51.9779 60.9212C51.6435 61.1069 51.3654 61.3794 51.1729 61.71V60.8329H49.619V68.038H51.1859V63.9999C51.1859 62.8059 51.697 62.1429 52.723 62.1429C53.0581 62.1382 53.3908 62.1997 53.702 62.3239L54.184 60.8469C53.8268 60.7194 53.4502 60.6545 53.071 60.655M39.7 60.8329H37.138V58.6479H35.554V60.8329H34.093V62.265H35.554V65.551C35.554 67.222 36.202 68.2189 38.054 68.2189C38.7471 68.2209 39.4267 68.0275 40.015 67.6609L39.562 66.3189C39.1406 66.5692 38.6628 66.7089 38.1729 66.7249C37.3889 66.7249 37.136 66.243 37.136 65.52V62.2629H39.698V60.8329H39.7ZM16.271 68.041V63.517C16.2974 63.1365 16.2424 62.7548 16.1096 62.3973C15.9769 62.0399 15.7695 61.7148 15.5012 61.4438C15.2329 61.1728 14.91 60.9621 14.5539 60.8257C14.1977 60.6893 13.8166 60.6304 13.4359 60.653C12.9376 60.6203 12.4397 60.722 11.994 60.9473C11.5483 61.1726 11.1712 61.5133 10.9019 61.934C10.657 61.5258 10.3064 61.1913 9.88718 60.9658C9.46792 60.7404 8.99557 60.6323 8.51999 60.653C8.10578 60.6319 7.69326 60.7195 7.32333 60.907C6.9534 61.0946 6.6389 61.3754 6.41098 61.7219V60.83H4.84195V68.0359H6.42294V64.041C6.38871 63.7942 6.40959 63.543 6.48404 63.3053C6.55849 63.0676 6.68468 62.8493 6.85355 62.6662C7.02241 62.4831 7.22976 62.3397 7.46066 62.2463C7.69157 62.1529 7.94031 62.1117 8.189 62.1259C9.229 62.1259 9.75497 62.8039 9.75497 64.0259V68.0359H11.339V64.041C11.3073 63.7949 11.33 63.545 11.4052 63.3087C11.4804 63.0723 11.6064 62.8553 11.7744 62.6728C11.9424 62.4903 12.1483 62.3468 12.3776 62.2523C12.6069 62.1579 12.8542 62.1147 13.102 62.1259C14.172 62.1259 14.683 62.8039 14.683 64.0259V68.0359L16.271 68.041Z" fill="#221E20"/>
<path d="M87.266 44.0718V43.0168H86.99L86.674 43.7408L86.357 43.0168H86.0819V44.0718H86.282V43.2778L86.5819 43.9628H86.782L87.0819 43.2758V44.0758L87.266 44.0718ZM85.524 44.0718V43.1998H85.875V43.0218H84.9749V43.1998H85.326V44.0738L85.524 44.0718Z" fill="#F29318"/>
<path d="M56.076 48.5908H32.328V5.91284H56.076V48.5908Z" fill="#EA611C"/>
<path d="M33.833 27.2539C33.8298 23.1439 34.7615 19.0869 36.5576 15.3901C38.3537 11.6934 40.967 8.45357 44.2 5.91584C40.1961 2.7688 35.3876 0.811676 30.324 0.268257C25.2605 -0.275162 20.1462 0.617006 15.5657 2.84278C10.9852 5.06855 7.12337 8.53817 4.42154 12.855C1.7197 17.1718 0.286896 22.1617 0.286896 27.2543C0.286896 32.347 1.7197 37.3369 4.42154 41.6537C7.12337 45.9705 10.9852 49.4401 15.5657 51.6658C20.1462 53.8916 25.2605 54.7838 30.324 54.2404C35.3876 53.6969 40.1961 51.7399 44.2 48.5928C40.9673 46.0548 38.3542 42.8147 36.5584 39.1177C34.7627 35.4208 33.8314 31.3638 33.835 27.2539" fill="#E31221"/>
<path d="M88.1129 27.2538C88.1134 32.3466 86.6809 37.3368 83.9792 41.6539C81.2775 45.971 77.4156 49.4409 72.835 51.6668C68.2544 53.8927 63.1398 54.7848 58.0761 54.2412C53.0124 53.6977 48.2038 51.7403 44.2 48.5928C47.4306 46.0528 50.0423 42.8124 51.8381 39.1161C53.6339 35.4197 54.567 31.3638 54.567 27.2543C54.567 23.1448 53.6339 19.0889 51.8381 15.3925C50.0423 11.6961 47.4306 8.45579 44.2 5.91581C48.2037 2.7687 53.0121 0.811519 58.0756 0.268043C63.1391 -0.275433 68.2533 0.616699 72.8337 2.84244C77.4141 5.06819 81.276 8.53779 83.9777 12.8546C86.6794 17.1714 88.1121 22.1613 88.112 27.2538" fill="#F49D1E"/>
</svg>
