<svg width="225" height="40" viewBox="0 0 225 40" fill="none" xmlns="http://www.w3.org/2000/svg">
<path d="M93.207 27C95.448 27 96.764 25.037 96.764 22.7C96.764 20.33 95.511 18.3689 93.207 18.3689C90.807 18.3689 89.655 20.33 89.655 22.7C89.655 25.037 90.976 27 93.207 27ZM93.207 30.9609C87.846 30.9609 84.0069 27.74 84.0069 22.7C84.0069 17.721 87.986 14.406 93.207 14.406C98.428 14.406 102.407 17.7 102.407 22.7C102.414 27.736 98.54 30.958 93.207 30.958V30.9609ZM159.236 22.7019C159.236 20.5859 158.03 18.7019 155.925 18.7019C154.074 18.7019 152.582 20.2839 152.582 22.7019C152.582 25.0459 153.802 26.7141 155.925 26.7141C157.838 26.7141 159.236 25.1259 159.236 22.7019ZM147.17 30.623V8.29199H152.67V15.9451H152.733C154.14 14.9749 155.803 14.4457 157.512 14.425C161.794 14.425 164.94 17.867 164.94 22.425C164.94 28.114 161.452 30.981 157.477 30.981C156.579 31.0319 155.681 30.8987 154.837 30.5891C153.993 30.2795 153.221 29.8001 152.569 29.1809H152.482L152.402 30.6311L147.17 30.623ZM120.383 6.79102C119.771 6.79082 119.173 6.97198 118.664 7.31177C118.155 7.65155 117.759 8.13474 117.525 8.69995C117.29 9.26516 117.229 9.88698 117.348 10.4871C117.468 11.0871 117.762 11.6384 118.195 12.071C118.628 12.5037 119.179 12.7984 119.779 12.9177C120.379 13.037 121.001 12.9757 121.566 12.7415C122.131 12.5072 122.614 12.1106 122.954 11.6018C123.294 11.093 123.475 10.4949 123.475 9.88306C123.473 9.06366 123.146 8.27838 122.567 7.69897C121.988 7.11957 121.202 6.79313 120.383 6.79102ZM117.624 14.8101H123.145V30.6599H117.624V14.8101ZM188.479 30.637H193.837V22.4561C193.803 22.051 193.852 21.6432 193.981 21.2578C194.111 20.8725 194.318 20.5177 194.589 20.2153C194.861 19.9129 195.192 19.6693 195.561 19.4995C195.93 19.3297 196.331 19.2374 196.737 19.228C198.593 19.228 199.649 20.4361 199.649 22.4561V30.637H205V21.1001C205 17.5131 202.689 14.439 198.449 14.439C197.517 14.4381 196.594 14.6279 195.738 14.9968C194.882 15.3657 194.11 15.9058 193.471 16.584H193.358L193.304 14.8291H188.476V30.635M208.385 30.635H213.878V23.3H213.936L218.816 30.6321H224.931L219.042 22.2319L224.78 14.8091H218.68L213.943 21.3391H213.884V8.30103H208.392V30.627L208.385 30.635ZM82.5999 15.0391C81.3292 14.6316 80.0044 14.4181 78.67 14.406C73.705 14.406 69.987 17.5121 69.987 22.6851C69.9505 23.7976 70.1458 24.9055 70.5605 25.9385C70.9752 26.9714 71.6001 27.9068 72.3957 28.6853C73.1913 29.4638 74.1401 30.0683 75.1818 30.4604C76.2236 30.8526 77.3355 31.0235 78.447 30.9629C79.8592 30.9555 81.2612 30.7226 82.5999 30.2729L82.3299 25.655C81.4736 26.135 80.5198 26.415 79.54 26.4741C79.0338 26.4965 78.5285 26.4142 78.0556 26.2324C77.5827 26.0507 77.1524 25.7733 76.7916 25.4177C76.4307 25.0621 76.147 24.6357 75.9583 24.1655C75.7696 23.6953 75.68 23.1915 75.6949 22.6851C75.6815 22.1718 75.7742 21.6613 75.9671 21.1855C76.16 20.7098 76.4492 20.2789 76.8163 19.9199C77.1835 19.561 77.6206 19.2816 78.1006 19.0994C78.5807 18.9172 79.0931 18.8361 79.6059 18.8611C80.5616 18.9066 81.4943 19.1707 82.332 19.6331L82.5999 15.0391ZM131.44 22.554C131.44 25.172 132.902 26.8101 134.795 26.8101C136.51 26.8101 138.181 25.21 138.181 22.77C138.181 20.316 136.7 18.6379 134.795 18.6379C132.824 18.6379 131.44 20.395 131.44 22.554ZM143.612 14.7971V30.6321H138.263L138.183 29.032H138.066C137.472 29.567 136.238 30.9771 132.787 30.9771C128.96 30.9771 125.61 27.6531 125.61 22.6951C125.61 18.0951 128.582 14.425 133.141 14.425C134.029 14.364 134.92 14.4928 135.755 14.8032C136.59 15.1136 137.348 15.5984 137.981 16.2251H138.124L138.178 14.791H143.612V14.7971ZM172.74 22.5439C172.74 25.1629 174.202 26.8 176.095 26.8C177.808 26.8 179.48 25.193 179.48 22.76C179.48 20.306 177.998 18.6289 176.095 18.6289C174.122 18.6289 172.74 20.3879 172.74 22.5439ZM184.912 14.79V30.627H179.56L179.48 29.0271H179.365C178.772 29.5621 177.535 30.9771 174.087 30.9771C170.26 30.9771 166.91 27.6501 166.91 22.6951C166.91 18.0951 169.882 14.4221 174.441 14.4221C175.33 14.3616 176.221 14.4907 177.056 14.801C177.89 15.1114 178.65 15.5957 179.283 16.2219H179.426L179.48 14.7891H184.912V14.79ZM52.306 30.0449C54.3748 30.6385 56.5165 30.9395 58.6689 30.939C63.3689 30.939 68.06 29.273 68.06 24.114C68.06 17.029 58.2929 18.014 58.2929 15.187C58.2929 13.744 59.7929 13.4299 61.2659 13.4299C63.0539 13.5476 64.8104 13.9575 66.4659 14.6431L66.909 9.76196C65.0842 9.2304 63.1904 8.97362 61.29 9C56.649 9 52.0699 10.8139 52.0699 15.4099C52.0699 22.3679 61.8089 20.9191 61.8089 24.5691C61.8089 25.9751 60.409 26.5071 58.618 26.5071C56.5967 26.3661 54.6287 25.7949 52.8459 24.832L52.306 30.0449ZM114.949 26.3169C114.452 26.4623 113.941 26.5513 113.424 26.582C113.099 26.6103 112.773 26.5652 112.468 26.45C112.164 26.3347 111.889 26.1522 111.664 25.9163C111.44 25.6803 111.271 25.3971 111.171 25.0872C111.071 24.7772 111.043 24.4486 111.087 24.126V18.772H114.548V14.793H111.087V9.69312H105.576V14.793H103.166V18.772H105.576V25.0359C105.576 28.4829 107.176 30.9509 111.251 30.9509C112.263 30.9451 113.272 30.8446 114.266 30.6509L114.949 26.3169ZM32.863 20.0171C33.002 26.8561 26.822 32.0171 21.655 32.0171H8.88495L0.874939 39.999H21.5169C24.9173 39.8763 28.1436 38.4645 30.5413 36.0503C32.939 33.6361 34.3286 30.4002 34.4279 26.999C34.5435 24.6192 34.0028 22.2533 32.8649 20.1599V20.019M30.6739 25.0559C31.4335 23.6678 31.8721 22.1272 31.957 20.5471H26.1639C26.1563 22.0817 25.8983 23.6045 25.4 25.0559H30.6739ZM25.0219 25.9561C24.187 27.9049 22.906 29.6301 21.2819 30.9929C23.0527 30.9776 24.7896 30.5061 26.3249 29.6238C27.8602 28.7415 29.1422 27.4783 30.0469 25.9561H25.0219ZM24.3649 25.0559C24.8526 23.5968 25.153 22.0819 25.259 20.5471H16.493C16.599 22.0819 16.8993 23.5968 17.3869 25.0559H24.3649ZM16.383 25.0559C15.8802 23.6045 15.6102 22.0829 15.5829 20.5471H9.79999C9.92 22.1209 10.3557 23.6541 11.081 25.0559H16.383ZM20.89 30.082C22.1603 28.9036 23.205 27.5033 23.973 25.95H17.7729C18.5431 27.5098 19.5991 28.9114 20.8859 30.082H20.89ZM11.5899 25.9529C12.5303 27.4768 13.8413 28.7379 15.4005 29.6187C16.9596 30.4994 18.7163 30.9712 20.5069 30.99C18.8298 29.6744 17.5333 27.9357 16.7509 25.9529H11.5899ZM25.395 15.134C25.92 16.5778 26.1789 18.1049 26.159 19.6411H31.952C31.877 18.06 31.4378 16.5176 30.6689 15.134H25.395ZM30.0419 14.0859C29.1114 12.5881 27.8233 11.345 26.2934 10.4683C24.7635 9.59151 23.0397 9.10862 21.2769 9.06299C22.9156 10.4063 24.1998 12.1309 25.0169 14.0859H30.0419ZM17.3799 15.134C16.8857 16.5907 16.5851 18.1061 16.4859 19.6411H25.2509C25.1526 18.1061 24.8524 16.5906 24.358 15.134H17.3799ZM11.0739 15.134C10.3371 16.5306 9.90045 18.0658 9.79193 19.6411H15.5829C15.5804 18.1032 15.8514 16.5771 16.383 15.134H11.0739ZM20.8849 10.0669C19.6021 11.1968 18.5463 12.5608 17.774 14.0859H23.9739C23.202 12.5676 22.1561 11.2051 20.889 10.0669H20.8849ZM16.754 14.0859C17.5154 12.0954 18.8159 10.3562 20.5099 9.06299C18.7271 9.11231 16.9832 9.59545 15.4293 10.4707C13.8753 11.346 12.5582 12.5869 11.592 14.0859H16.754ZM8.8819 19.8779C7.75501 17.7854 7.21436 15.4274 7.31696 13.053C7.4114 9.64456 8.79828 6.39965 11.1965 3.97583C13.5947 1.55201 16.8248 0.130665 20.232 0H40.8759L32.864 8.08008H20.0939C14.9599 8.08008 8.74688 13.286 8.88788 19.874L8.8819 19.8779Z" fill="#E63629"/>
</svg>
