<svg width="180" height="132" viewBox="0 0 180 132" fill="none" xmlns="http://www.w3.org/2000/svg">
<path d="M172.241 16.7568H53.3C51.2924 16.7571 49.3672 17.555 47.9478 18.9746C46.5284 20.3942 45.731 22.3196 45.731 24.3271V50.6001H23.739C21.7313 50.6001 19.8058 51.3977 18.3862 52.8174C16.9665 54.237 16.169 56.1622 16.169 58.1699V123.839C16.1698 125.262 16.5719 126.656 17.3292 127.861C18.0864 129.066 19.168 130.034 20.45 130.652C20.62 130.731 20.794 130.807 20.968 130.875L21.131 130.939C21.9616 131.242 22.8388 131.397 23.723 131.397H142.648C144.655 131.397 146.581 130.6 148 129.18C149.419 127.761 150.217 125.836 150.217 123.828V97.5581H172.241C174.236 97.5578 176.15 96.765 177.561 95.354C178.972 93.943 179.765 92.0296 179.765 90.0342V24.2808C179.764 22.2856 178.971 20.3727 177.56 18.9619C176.149 17.5511 174.236 16.7579 172.241 16.7568Z" fill="url(#paint0_linear_3_1801)"/>
<path d="M156.19 0.120117H37.28C33.108 0.120117 29.726 3.50216 29.726 7.67412V73.3701C29.726 77.5421 33.108 80.9241 37.28 80.9241H156.19C160.362 80.9241 163.744 77.5421 163.744 73.3701V7.67412C163.744 3.50216 160.362 0.120117 156.19 0.120117Z" fill="#1464A5"/>
<path d="M156.216 80.9238C158.212 80.923 160.127 80.1299 161.538 78.7183C162.95 77.3067 163.743 75.3923 163.744 73.396V7.64404C163.743 5.64819 162.949 3.73415 161.538 2.32324C160.126 0.912333 158.212 0.120117 156.216 0.120117H117.869L74.905 80.9199L156.216 80.9238Z" fill="url(#paint1_linear_3_1801)"/>
<path opacity="0.6" d="M163.744 11.6138H29.726V24.7548H163.744V11.6138Z" fill="#043263"/>
<path d="M143.049 50.0479H50.417C49.8735 50.0479 49.433 50.4884 49.433 51.0319V60.8879C49.433 61.4313 49.8735 61.8719 50.417 61.8719H143.049C143.592 61.8719 144.033 61.4313 144.033 60.8879V51.0319C144.033 50.4884 143.592 50.0479 143.049 50.0479Z" fill="#D4EDFC"/>
<path d="M126.627 33.9521H7.71696C3.545 33.9521 0.162964 37.3342 0.162964 41.5061V107.202C0.162964 111.374 3.545 114.756 7.71696 114.756H126.627C130.799 114.756 134.181 111.374 134.181 107.202V41.5061C134.181 37.3342 130.799 33.9521 126.627 33.9521Z" fill="#49A5E6"/>
<path opacity="0.5" fill-rule="evenodd" clip-rule="evenodd" d="M7.71796 114.756H74.049L113.683 33.9561H7.71796C6.72381 33.9559 5.73939 34.1514 4.82089 34.5317C3.9024 34.9121 3.06783 35.4699 2.36487 36.1729C1.6619 36.8758 1.10432 37.7104 0.723938 38.6289C0.343556 39.5474 0.147848 40.5317 0.14798 41.5259V107.2C0.151688 109.205 0.950869 111.127 2.37012 112.544C3.78937 113.961 5.71269 114.756 7.71796 114.756Z" fill="url(#paint2_linear_3_1801)"/>
<path d="M67.528 72.9268H12.013C11.4695 72.9268 11.029 73.3673 11.029 73.9108V83.7668C11.029 84.3102 11.4695 84.7508 12.013 84.7508H67.528C68.0714 84.7508 68.512 84.3102 68.512 83.7668V73.9108C68.512 73.3673 68.0714 72.9268 67.528 72.9268Z" fill="#D4EDFC"/>
<path d="M121.725 91.0371H12.013C11.4695 91.0371 11.029 91.4777 11.029 92.0211V101.877C11.029 102.421 11.4695 102.861 12.013 102.861H121.725C122.268 102.861 122.709 102.421 122.709 101.877V92.0211C122.709 91.4777 122.268 91.0371 121.725 91.0371Z" fill="#D4EDFC"/>
<defs>
<linearGradient id="paint0_linear_3_1801" x1="63.939" y1="-10675.7" x2="99.5705" y2="-10812.1" gradientUnits="userSpaceOnUse">
<stop stop-color="#192647" stop-opacity="0.502"/>
<stop offset="1" stop-color="#192647" stop-opacity="0"/>
</linearGradient>
<linearGradient id="paint1_linear_3_1801" x1="163.744" y1="-10706.5" x2="74.905" y2="-10706.5" gradientUnits="userSpaceOnUse">
<stop stop-color="#043263"/>
<stop offset="1" stop-color="#043263" stop-opacity="0"/>
</linearGradient>
<linearGradient id="paint2_linear_3_1801" x1="19.5619" y1="-10718.3" x2="67.7883" y2="-10768.9" gradientUnits="userSpaceOnUse">
<stop stop-color="#EAF9FA"/>
<stop offset="1" stop-color="#EAF9FA" stop-opacity="0.502"/>
</linearGradient>
</defs>
</svg>
