<svg width="111" height="37" viewBox="0 0 111 37" fill="none" xmlns="http://www.w3.org/2000/svg">
<path fill-rule="evenodd" clip-rule="evenodd" d="M39.3579 35.5997L44.917 1.20874H53.791L48.237 35.5997H39.3579Z" fill="#33599B"/>
<path fill-rule="evenodd" clip-rule="evenodd" d="M80.447 2.05481C77.9082 1.08274 75.2105 0.592013 72.492 0.607791C63.713 0.607791 57.533 5.27984 57.481 11.9598C57.428 16.9018 61.8929 19.6598 65.2589 21.2988C68.7139 22.9848 69.878 24.0608 69.866 25.5638C69.839 27.8638 67.1059 28.9258 64.5529 28.9258C61.66 29.013 58.7894 28.3934 56.19 27.1208L55.0479 26.5698L53.8029 34.2698C56.9578 35.4997 60.3169 36.1213 63.703 36.1018C73.03 36.1018 79.091 31.4878 79.166 24.3608C79.198 20.4358 76.8299 17.4718 71.7119 15.0108C68.6119 13.4178 66.704 12.3608 66.721 10.7458C66.721 9.31579 68.331 7.78882 71.81 7.78882C74.093 7.73749 76.3596 8.18738 78.45 9.10681L79.25 9.5008L80.447 2.05481Z" fill="#33599B"/>
<path fill-rule="evenodd" clip-rule="evenodd" d="M92.269 23.3998C93.005 21.4268 95.804 13.7898 95.804 13.7898C95.752 13.8778 96.539 11.7948 96.985 10.5058L97.585 13.4758C97.585 13.4758 99.293 21.6758 99.641 23.3998H92.269ZM103.226 1.23682H96.364C94.235 1.23682 92.642 1.8488 91.709 4.0918L78.526 35.6038H87.853C87.853 35.6038 89.375 31.3698 89.719 30.4368C90.732 30.4368 99.794 30.4538 101.09 30.4538C101.36 31.6538 102.174 35.6038 102.174 35.6038H110.412L103.226 1.23682Z" fill="#33599B"/>
<path fill-rule="evenodd" clip-rule="evenodd" d="M31.911 1.23682L23.218 24.6828L22.292 19.9178C20.67 14.4268 15.625 8.47581 9.99197 5.49481L17.943 35.5688H27.343L41.325 1.24384H31.917L31.911 1.23682Z" fill="#33599B"/>
<path fill-rule="evenodd" clip-rule="evenodd" d="M15.1519 1.21484H0.835968L0.721954 1.92584C11.859 4.77384 19.23 11.6498 22.294 19.9148L19.179 4.11481C18.643 1.93981 17.0789 1.29384 15.1519 1.21484Z" fill="#E3A330"/>
</svg>
